<?xml version="1.0" encoding="utf-8"?>
<!-- Generator: Adobe Illustrator 25.2.0, SVG Export Plug-In . SVG Version: 6.00 Build 0)  -->
<svg version="1.0" id="Capa_1" xmlns="http://www.w3.org/2000/svg" xmlns:xlink="http://www.w3.org/1999/xlink" x="0px" y="0px"
	 width="720px" height="406.84px" viewBox="0 0 720 406.84" enable-background="new 0 0 720 406.84" xml:space="preserve">
<polyline fill="none" stroke="#000078" stroke-width="5" stroke-miterlimit="10" points="211.476,237.833 218.67,269.919 
	228.964,237.833 "/>
<circle fill="#73EDFF" cx="183.537" cy="297.21" r="44.497"/>
<circle fill="#73EDFF" cx="253.803" cy="297.21" r="44.497"/>
<g>
	<path fill="#000078" d="M340.701,90.274c0-0.462,0.266-0.729,0.729-0.729c0.462,0,0.728,0.266,0.728,0.729
		c0,0.462-0.266,0.728-0.728,0.728C340.967,91.002,340.701,90.735,340.701,90.274z M340.827,92.375h1.19v6.808h-1.19V92.375z"/>
	<path fill="#000078" d="M343.809,92.375h1.135v1.793c0.322-1.289,1.008-1.919,2.045-1.919c1.289,0,2.031,0.84,2.031,2.354v4.58
		h-1.191v-4.37c0-1.022-0.35-1.499-1.106-1.499c-1.121,0-1.723,1.162-1.723,3.277v2.592h-1.19V92.375z"/>
	<path fill="#000078" d="M351.075,93.411h-0.84v-1.036h0.84v-0.434c0-1.751,0.938-2.647,2.844-2.634h0.196v1.023h-0.238
		c-1.177,0-1.611,0.392-1.611,1.513v0.532h1.779v1.036h-1.779v5.771h-1.191V93.411z"/>
	<path fill="#000078" d="M354.686,96.311v-1.065c0-1.891,0.995-2.997,2.675-2.997c1.751,0,2.689,1.064,2.689,2.997v1.065
		c0,1.891-1.008,2.997-2.689,2.997C355.611,99.308,354.686,98.244,354.686,96.311z M358.861,96.409v-1.261
		c0-1.205-0.49-1.863-1.499-1.863c-1.037,0-1.485,0.658-1.485,1.863v1.261c0,1.205,0.477,1.863,1.485,1.863
		C358.398,98.272,358.861,97.614,358.861,96.409z"/>
	<path fill="#000078" d="M361.617,92.375h1.135v2.031c0.35-1.359,1.134-2.073,2.367-2.144v1.148
		c-1.569,0.099-2.312,1.247-2.312,3.11v2.661h-1.19V92.375z"/>
	<path fill="#000078" d="M366.292,92.375h1.135v1.793c0.322-1.289,1.022-1.919,2.059-1.919c1.121,0,1.821,0.63,1.975,1.807
		c0.336-1.232,1.037-1.807,2.045-1.807c1.289,0,2.017,0.84,2.017,2.354v4.58h-1.19v-4.37c0-1.022-0.351-1.499-1.107-1.499
		c-1.121,0-1.723,1.162-1.723,3.277v2.592h-1.191v-4.37c0-1.022-0.35-1.499-1.106-1.499c-1.121,0-1.723,1.162-1.723,3.277v2.592
		h-1.19V92.375z"/>
	<path fill="#000078" d="M376.89,97.782c0.743,0.378,1.317,0.532,1.947,0.532c0.827,0,1.233-0.309,1.233-0.925
		c0-0.49-0.267-0.757-0.939-0.98l-0.686-0.225c-1.121-0.378-1.639-0.994-1.639-1.946c0-1.191,0.869-1.989,2.297-1.989
		c0.672,0,1.275,0.112,1.737,0.308v1.107c-0.56-0.253-1.05-0.421-1.765-0.421c-0.743,0-1.093,0.294-1.093,0.854
		c0,0.532,0.252,0.812,1.051,1.064l0.686,0.238c1.051,0.351,1.527,0.925,1.527,1.85c0,1.316-0.896,2.059-2.437,2.059
		c-0.729,0-1.387-0.14-1.919-0.42V97.782z"/>
</g>
<g>
	<path fill="#000078" d="M360.196,152.266c0-0.21,0.07-0.771,0.154-1.274l0.42-2.689h-0.798l0.168-1.022h0.799l0.224-1.429h1.176
		l-0.224,1.429h1.709l-0.168,1.022h-1.709l-0.532,3.404c-0.028,0.182-0.042,0.336-0.042,0.476c0,0.687,0.35,0.953,1.303,0.953
		c0.112,0,0.224-0.015,0.35-0.042l-0.154,0.994c-0.224,0.042-0.378,0.056-0.603,0.056
		C360.827,154.143,360.196,153.458,360.196,152.266z"/>
	<path fill="#000078" d="M364.172,152.043c0-0.309,0.014-0.532,0.056-0.812l0.21-1.303c0.322-1.961,1.079-2.773,2.592-2.773
		c0.812,0,1.442,0.378,1.681,1.064l0.14-0.938h1.121l-1.079,6.808h-1.121l0.168-1.064c-0.392,0.784-1.106,1.177-1.821,1.177
		C364.844,154.2,364.172,153.458,364.172,152.043z M368.164,151.216l0.168-1.009c0.028-0.168,0.056-0.463,0.056-0.7
		c0-0.841-0.518-1.317-1.331-1.317c-0.84,0-1.233,0.49-1.457,1.85l-0.21,1.288c-0.028,0.196-0.042,0.421-0.042,0.603
		c0,0.854,0.35,1.247,1.106,1.247C367.24,153.177,367.968,152.392,368.164,151.216z"/>
	<path fill="#000078" d="M371.774,147.28h1.134l-0.252,1.723c0.504-1.289,1.19-1.849,2.227-1.849c1.079,0,1.625,0.588,1.625,1.751
		c0,0.154-0.084,0.882-0.154,1.288l-0.616,3.895h-1.177l0.617-3.908c0.07-0.448,0.112-0.841,0.112-0.994
		c0-0.673-0.266-0.98-0.84-0.98c-0.98,0-1.849,1.274-2.185,3.403l-0.393,2.479h-1.176L371.774,147.28z"/>
	<path fill="#000078" d="M377.247,155.545c0.729,0.364,1.219,0.49,1.919,0.49c1.289,0,1.905-0.603,2.143-2.129l0.14-0.883
		c-0.393,0.784-1.009,1.177-1.807,1.177c-1.275,0-1.947-0.771-1.947-2.157c0-0.309,0.014-0.532,0.056-0.812l0.21-1.303
		c0.322-1.961,1.079-2.773,2.592-2.773c0.868,0,1.513,0.42,1.723,1.064l0.154-0.938h1.106l-1.051,6.598
		c-0.364,2.297-1.316,3.18-3.375,3.18c-0.729,0-1.471-0.168-2.031-0.462L377.247,155.545z M379.978,153.177
		c0.854,0,1.555-0.771,1.751-1.961l0.168-1.009c0.028-0.168,0.056-0.463,0.056-0.7c0-0.841-0.49-1.317-1.373-1.317
		c-0.84,0-1.233,0.49-1.457,1.85l-0.21,1.288c-0.028,0.196-0.042,0.435-0.042,0.616
		C378.872,152.798,379.222,153.177,379.978,153.177z"/>
	<path fill="#000078" d="M385.34,147.28h1.176l-1.079,6.808h-1.176L385.34,147.28z M387.006,145.024
		c0,0.504-0.322,0.882-0.868,0.882c-0.406,0-0.63-0.21-0.63-0.574c0-0.504,0.322-0.882,0.869-0.882
		C386.782,144.45,387.006,144.66,387.006,145.024z"/>
	<path fill="#000078" d="M388.798,144.282h1.177l-0.645,4.062c0.42-0.812,0.98-1.19,1.849-1.19c1.274,0,1.933,0.756,1.933,2.157
		c0,0.322-0.014,0.574-0.056,0.84l-0.21,1.275c-0.322,1.919-1.121,2.787-2.689,2.787c-0.785,0-1.457-0.406-1.667-1.051l-0.14,0.925
		h-1.106L388.798,144.282z M391.684,151.342l0.21-1.289c0.028-0.196,0.042-0.42,0.042-0.588c0-0.869-0.35-1.289-1.148-1.289
		c-0.854,0-1.541,0.784-1.737,1.975l-0.168,1.009c-0.028,0.183-0.056,0.519-0.056,0.645c0,0.799,0.435,1.358,1.247,1.358
		C391.025,153.163,391.473,152.659,391.684,151.342z"/>
	<path fill="#000078" d="M395.644,144.282h1.177l-1.555,9.805h-1.176L395.644,144.282z"/>
	<path fill="#000078" d="M399.69,154.2c-1.597,0-2.451-0.799-2.451-2.241c0-0.168,0.042-0.645,0.084-0.896l0.154-0.995
		c0.308-2.031,1.148-2.899,2.927-2.899c1.429,0,2.115,0.743,2.115,2.031c0,0.182-0.014,0.477-0.084,0.91l-0.126,0.827h-3.824
		c-0.042,0.266-0.098,0.63-0.098,0.882c0,0.925,0.393,1.359,1.527,1.359c0.687,0,1.205-0.168,1.975-0.603l-0.154,1.12
		C401.035,154.074,400.461,154.2,399.69,154.2z M401.315,150.011c0.042-0.28,0.07-0.504,0.07-0.729c0-0.826-0.308-1.135-1.106-1.135
		c-0.995,0-1.401,0.49-1.653,1.863H401.315z"/>
</g>
<g>
	<path fill="#000078" d="M593.536,147.28h1.176l-1.078,6.808h-1.177L593.536,147.28z M595.202,145.024
		c0,0.504-0.321,0.882-0.868,0.882c-0.406,0-0.63-0.21-0.63-0.574c0-0.504,0.322-0.882,0.868-0.882
		C594.978,144.45,595.202,144.66,595.202,145.024z"/>
	<path fill="#000078" d="M596.518,147.28h1.135l-0.252,1.723c0.504-1.289,1.19-1.849,2.227-1.849c1.079,0,1.625,0.588,1.625,1.751
		c0,0.154-0.084,0.882-0.154,1.288l-0.616,3.895h-1.177l0.617-3.908c0.069-0.448,0.111-0.841,0.111-0.994
		c0-0.673-0.266-0.98-0.84-0.98c-0.98,0-1.85,1.274-2.186,3.403l-0.393,2.479h-1.176L596.518,147.28z"/>
	<path fill="#000078" d="M602.845,152.266c0-0.21,0.07-0.771,0.154-1.274l0.42-2.689h-0.798l0.168-1.022h0.799l0.224-1.429h1.177
		l-0.225,1.429h1.709l-0.168,1.022h-1.709l-0.532,3.404c-0.027,0.182-0.042,0.336-0.042,0.476c0,0.687,0.351,0.953,1.303,0.953
		c0.112,0,0.225-0.015,0.351-0.042l-0.154,0.994c-0.224,0.042-0.378,0.056-0.603,0.056
		C603.476,154.143,602.845,153.458,602.845,152.266z"/>
	<path fill="#000078" d="M606.82,152.043c0-0.309,0.015-0.532,0.057-0.812l0.21-1.303c0.322-1.961,1.078-2.773,2.592-2.773
		c0.812,0,1.442,0.378,1.681,1.064l0.14-0.938h1.121l-1.079,6.808h-1.12l0.168-1.064c-0.393,0.784-1.106,1.177-1.821,1.177
		C607.493,154.2,606.82,153.458,606.82,152.043z M610.812,151.216l0.169-1.009c0.027-0.168,0.056-0.463,0.056-0.7
		c0-0.841-0.519-1.317-1.331-1.317c-0.84,0-1.232,0.49-1.457,1.85l-0.21,1.288c-0.027,0.196-0.042,0.421-0.042,0.603
		c0,0.854,0.351,1.247,1.106,1.247C609.889,153.177,610.617,152.392,610.812,151.216z"/>
	<path fill="#000078" d="M614.423,147.28h1.135l-0.252,1.723c0.504-1.289,1.19-1.849,2.227-1.849c1.079,0,1.625,0.588,1.625,1.751
		c0,0.154-0.084,0.882-0.154,1.288l-0.616,3.895h-1.177l0.617-3.908c0.069-0.448,0.111-0.841,0.111-0.994
		c0-0.673-0.266-0.98-0.84-0.98c-0.98,0-1.85,1.274-2.186,3.403l-0.393,2.479h-1.176L614.423,147.28z"/>
	<path fill="#000078" d="M619.895,155.545c0.729,0.364,1.219,0.49,1.92,0.49c1.288,0,1.904-0.603,2.143-2.129l0.141-0.883
		c-0.393,0.784-1.009,1.177-1.808,1.177c-1.274,0-1.947-0.771-1.947-2.157c0-0.309,0.015-0.532,0.057-0.812l0.21-1.303
		c0.322-1.961,1.078-2.773,2.592-2.773c0.868,0,1.513,0.42,1.723,1.064l0.154-0.938h1.106l-1.051,6.598
		c-0.364,2.297-1.316,3.18-3.376,3.18c-0.729,0-1.471-0.168-2.031-0.462L619.895,155.545z M622.627,153.177
		c0.854,0,1.556-0.771,1.751-1.961l0.169-1.009c0.027-0.168,0.056-0.463,0.056-0.7c0-0.841-0.49-1.317-1.373-1.317
		c-0.84,0-1.232,0.49-1.457,1.85l-0.21,1.288c-0.027,0.196-0.042,0.435-0.042,0.616C621.52,152.798,621.871,153.177,622.627,153.177
		z"/>
	<path fill="#000078" d="M627.988,147.28h1.177l-1.079,6.808h-1.176L627.988,147.28z M629.655,145.024
		c0,0.504-0.322,0.882-0.868,0.882c-0.406,0-0.631-0.21-0.631-0.574c0-0.504,0.322-0.882,0.869-0.882
		C629.431,144.45,629.655,144.66,629.655,145.024z"/>
	<path fill="#000078" d="M631.446,144.282h1.177l-0.645,4.062c0.421-0.812,0.98-1.19,1.85-1.19c1.274,0,1.933,0.756,1.933,2.157
		c0,0.322-0.014,0.574-0.056,0.84l-0.21,1.275c-0.322,1.919-1.121,2.787-2.689,2.787c-0.785,0-1.457-0.406-1.667-1.051l-0.141,0.925
		h-1.106L631.446,144.282z M634.332,151.342l0.21-1.289c0.028-0.196,0.042-0.42,0.042-0.588c0-0.869-0.35-1.289-1.148-1.289
		c-0.854,0-1.541,0.784-1.737,1.975l-0.168,1.009c-0.027,0.183-0.056,0.519-0.056,0.645c0,0.799,0.435,1.358,1.247,1.358
		C633.674,153.163,634.122,152.659,634.332,151.342z"/>
	<path fill="#000078" d="M638.293,144.282h1.177l-1.556,9.805h-1.176L638.293,144.282z"/>
	<path fill="#000078" d="M642.339,154.2c-1.597,0-2.451-0.799-2.451-2.241c0-0.168,0.042-0.645,0.084-0.896l0.154-0.995
		c0.309-2.031,1.148-2.899,2.928-2.899c1.429,0,2.115,0.743,2.115,2.031c0,0.182-0.015,0.477-0.084,0.91l-0.126,0.827h-3.824
		c-0.042,0.266-0.099,0.63-0.099,0.882c0,0.925,0.393,1.359,1.527,1.359c0.687,0,1.204-0.168,1.975-0.603l-0.153,1.12
		C643.684,154.074,643.109,154.2,642.339,154.2z M643.964,150.011c0.042-0.28,0.07-0.504,0.07-0.729
		c0-0.826-0.309-1.135-1.106-1.135c-0.995,0-1.401,0.49-1.653,1.863H643.964z"/>
</g>
<g>
	<path fill="#000078" d="M248.459,204.179v-1.401c0-1.736,0.995-2.773,2.773-2.773c0.448,0,0.967,0.07,1.317,0.196v1.093
		c-0.294-0.154-0.798-0.267-1.233-0.267c-1.092,0-1.667,0.547-1.667,1.863v1.177c0,1.289,0.533,1.947,1.625,1.947
		c0.448,0,0.911-0.099,1.303-0.322v1.036c-0.35,0.196-0.924,0.309-1.443,0.309C249.313,207.036,248.459,205.985,248.459,204.179z"/>
	<path fill="#000078" d="M253.639,205.173v-0.126c0-1.037,0.785-1.751,2.381-2.115l1.233-0.28v-0.35
		c0-0.827-0.504-1.275-1.373-1.275c-0.798,0-1.359,0.154-2.031,0.505v-1.065c0.603-0.294,1.247-0.462,2.102-0.462
		c1.583,0,2.479,0.854,2.479,2.409v4.511h-1.121v-1.078c-0.294,0.77-0.91,1.204-1.709,1.204
		C254.353,207.05,253.639,206.321,253.639,205.173z M257.253,204.234v-0.672l-1.065,0.252c-0.924,0.224-1.387,0.63-1.387,1.232
		v0.098c0,0.603,0.35,0.967,0.98,0.967C256.692,206.111,257.225,205.411,257.253,204.234z"/>
	<path fill="#000078" d="M260.177,200.116h1.135v1.793c0.322-1.289,1.008-1.919,2.045-1.919c1.289,0,2.031,0.84,2.031,2.354v4.58
		h-1.191v-4.37c0-1.022-0.35-1.499-1.106-1.499c-1.121,0-1.723,1.162-1.723,3.277v2.592h-1.19V200.116z"/>
	<path fill="#000078" d="M269.865,197.119h1.19v4.062c0.322-0.812,0.883-1.19,1.723-1.19c1.653,0,2.423,1.022,2.423,2.997v1.093
		c0,1.919-0.882,2.97-2.451,2.97c-0.812,0-1.471-0.42-1.779-1.051v0.925h-1.106V197.119z M271.055,203.002v1.162
		c0,1.163,0.603,1.85,1.569,1.85c0.938,0,1.387-0.589,1.387-1.85v-1.288c0-1.233-0.49-1.85-1.4-1.85
		C271.602,201.026,271.055,201.727,271.055,203.002z"/>
	<path fill="#000078" d="M276.571,203.941v-0.98c0-1.821,1.022-2.956,2.647-2.956c1.681,0,2.493,0.925,2.493,2.872v0.896h-3.978
		c0,1.61,0.546,2.241,1.933,2.241c0.7,0,1.261-0.168,1.891-0.589v1.093c-0.616,0.364-1.233,0.519-2.017,0.519
		C277.607,207.036,276.571,205.957,276.571,203.941z M280.577,202.848c0-1.358-0.364-1.863-1.373-1.863
		c-0.952,0-1.471,0.658-1.471,1.863H280.577z"/>
</g>
<g>
	<path fill="#000078" d="M386.797,257.668v-0.126c0-1.037,0.785-1.751,2.381-2.115l1.233-0.28v-0.35
		c0-0.827-0.504-1.275-1.373-1.275c-0.798,0-1.359,0.154-2.031,0.505v-1.065c0.603-0.294,1.247-0.462,2.102-0.462
		c1.583,0,2.479,0.854,2.479,2.409v4.511h-1.121v-1.078c-0.294,0.77-0.91,1.204-1.709,1.204
		C387.512,259.545,386.797,258.816,386.797,257.668z M390.412,256.73v-0.672l-1.065,0.252c-0.924,0.224-1.387,0.63-1.387,1.232
		v0.098c0,0.603,0.35,0.967,0.98,0.967C389.851,258.607,390.383,257.906,390.412,256.73z"/>
	<path fill="#000078" d="M393.587,253.648h-0.854v-1.036h0.854v-1.429h1.191v1.429h1.849v1.036h-1.849v3.391
		c0,1.05,0.392,1.414,1.499,1.414c0.126,0,0.294-0.014,0.435-0.042v1.022c-0.196,0.042-0.435,0.07-0.701,0.07
		c-1.653,0-2.423-0.799-2.423-2.451V253.648z"/>
	<path fill="#000078" d="M400.321,257.668v-0.126c0-1.037,0.785-1.751,2.381-2.115l1.233-0.28v-0.35
		c0-0.827-0.504-1.275-1.373-1.275c-0.798,0-1.359,0.154-2.031,0.505v-1.065c0.603-0.294,1.247-0.462,2.102-0.462
		c1.583,0,2.479,0.854,2.479,2.409v4.511h-1.121v-1.078c-0.294,0.77-0.91,1.204-1.709,1.204
		C401.035,259.545,400.321,258.816,400.321,257.668z M403.935,256.73v-0.672l-1.065,0.252c-0.924,0.224-1.387,0.63-1.387,1.232
		v0.098c0,0.603,0.35,0.967,0.98,0.967C403.374,258.607,403.907,257.906,403.935,256.73z"/>
</g>
<g>
	<path fill="#000078" d="M365.875,347.402v-1.065c0-1.891,0.995-2.997,2.675-2.997c1.751,0,2.689,1.064,2.689,2.997v1.065
		c0,1.891-1.008,2.997-2.689,2.997C366.799,350.399,365.875,349.335,365.875,347.402z M370.049,347.5v-1.261
		c0-1.205-0.49-1.863-1.499-1.863c-1.037,0-1.485,0.658-1.485,1.863v1.261c0,1.205,0.477,1.863,1.485,1.863
		C369.587,349.363,370.049,348.705,370.049,347.5z"/>
	<path fill="#000078" d="M372.805,343.466h1.135v1.177c0.252-0.827,0.896-1.303,1.793-1.303c1.583,0,2.409,1.036,2.409,2.983v1.093
		c0,1.961-0.854,2.983-2.493,2.983c-0.757,0-1.331-0.336-1.653-0.967v3.698h-1.19V343.466z M373.996,346.352v1.12
		c0,1.177,0.588,1.892,1.555,1.892c0.966,0,1.401-0.574,1.401-1.85v-1.288c0-1.219-0.462-1.85-1.387-1.85
		C374.556,344.376,373.996,345.076,373.996,346.352z"/>
	<path fill="#000078" d="M379.511,347.29v-0.98c0-1.821,1.022-2.956,2.647-2.956c1.681,0,2.493,0.925,2.493,2.872v0.896h-3.978
		c0,1.61,0.546,2.241,1.933,2.241c0.7,0,1.261-0.168,1.891-0.589v1.093c-0.616,0.364-1.233,0.519-2.017,0.519
		C380.547,350.386,379.511,349.307,379.511,347.29z M383.517,346.197c0-1.358-0.364-1.863-1.373-1.863
		c-0.952,0-1.471,0.658-1.471,1.863H383.517z"/>
	<path fill="#000078" d="M386.203,343.466h1.135v1.793c0.322-1.289,1.008-1.919,2.045-1.919c1.289,0,2.031,0.84,2.031,2.354v4.58
		h-1.191v-4.37c0-1.022-0.35-1.499-1.106-1.499c-1.121,0-1.723,1.162-1.723,3.277v2.592h-1.19V343.466z"/>
	<path fill="#000078" d="M396.143,344.502h-0.854v-1.036h0.854v-1.429h1.191v1.429h1.849v1.036h-1.849v3.391
		c0,1.05,0.392,1.414,1.499,1.414c0.126,0,0.294-0.014,0.435-0.042v1.022c-0.196,0.042-0.435,0.07-0.701,0.07
		c-1.653,0-2.423-0.799-2.423-2.451V344.502z"/>
	<path fill="#000078" d="M400.174,347.402v-1.065c0-1.891,0.995-2.997,2.675-2.997c1.751,0,2.689,1.064,2.689,2.997v1.065
		c0,1.891-1.008,2.997-2.689,2.997C401.099,350.399,400.174,349.335,400.174,347.402z M404.349,347.5v-1.261
		c0-1.205-0.49-1.863-1.499-1.863c-1.037,0-1.485,0.658-1.485,1.863v1.261c0,1.205,0.477,1.863,1.485,1.863
		C403.886,349.363,404.349,348.705,404.349,347.5z"/>
	<path fill="#000078" d="M410.086,344.502h-0.854v-1.036h0.854v-1.429h1.191v1.429h1.849v1.036h-1.849v3.391
		c0,1.05,0.392,1.414,1.499,1.414c0.126,0,0.294-0.014,0.435-0.042v1.022c-0.196,0.042-0.435,0.07-0.701,0.07
		c-1.653,0-2.423-0.799-2.423-2.451V344.502z"/>
	<path fill="#000078" d="M414.454,340.468h1.19v4.665c0.364-1.163,1.037-1.793,2.017-1.793c1.317,0,2.045,0.882,2.045,2.409v4.524
		h-1.191v-4.482c0-0.91-0.35-1.387-1.148-1.387c-1.064,0-1.723,1.274-1.723,3.151v2.718h-1.19V340.468z"/>
	<path fill="#000078" d="M421.23,347.29v-0.98c0-1.821,1.022-2.956,2.647-2.956c1.681,0,2.493,0.925,2.493,2.872v0.896h-3.978
		c0,1.61,0.546,2.241,1.933,2.241c0.7,0,1.261-0.168,1.891-0.589v1.093c-0.617,0.364-1.233,0.519-2.017,0.519
		C422.267,350.386,421.23,349.307,421.23,347.29z M425.236,346.197c0-1.358-0.364-1.863-1.373-1.863
		c-0.953,0-1.471,0.658-1.471,1.863H425.236z"/>
</g>
<g>
	<path fill="#000078" d="M141.908,204.053v-1.065c0-1.891,0.995-2.997,2.675-2.997c1.751,0,2.689,1.064,2.689,2.997v1.065
		c0,1.891-1.008,2.997-2.689,2.997C142.832,207.05,141.908,205.985,141.908,204.053z M146.082,204.15v-1.261
		c0-1.205-0.49-1.863-1.499-1.863c-1.037,0-1.485,0.658-1.485,1.863v1.261c0,1.205,0.477,1.863,1.485,1.863
		C145.62,206.014,146.082,205.356,146.082,204.15z"/>
	<path fill="#000078" d="M148.614,204.179v-1.401c0-1.736,0.995-2.773,2.773-2.773c0.448,0,0.967,0.07,1.317,0.196v1.093
		c-0.294-0.154-0.798-0.267-1.233-0.267c-1.092,0-1.667,0.547-1.667,1.863v1.177c0,1.289,0.533,1.947,1.625,1.947
		c0.448,0,0.911-0.099,1.303-0.322v1.036c-0.35,0.196-0.924,0.309-1.443,0.309C149.468,207.036,148.614,205.985,148.614,204.179z"/>
	<path fill="#000078" d="M153.934,204.179v-1.401c0-1.736,0.995-2.773,2.773-2.773c0.448,0,0.967,0.07,1.317,0.196v1.093
		c-0.294-0.154-0.798-0.267-1.233-0.267c-1.092,0-1.667,0.547-1.667,1.863v1.177c0,1.289,0.533,1.947,1.625,1.947
		c0.448,0,0.911-0.099,1.303-0.322v1.036c-0.35,0.196-0.924,0.309-1.443,0.309C154.788,207.036,153.934,205.985,153.934,204.179z"/>
	<path fill="#000078" d="M159.421,204.738v-4.622h1.191v4.482c0,0.91,0.322,1.387,1.064,1.387c1.051,0,1.681-1.289,1.681-3.348
		v-2.521h1.191v6.808h-1.135v-1.821c-0.294,1.205-0.966,1.947-2.017,1.947C160.122,207.05,159.421,206.209,159.421,204.738z"/>
	<path fill="#000078" d="M166.337,200.116h1.135v2.031c0.35-1.359,1.134-2.073,2.367-2.144v1.148
		c-1.569,0.099-2.312,1.247-2.312,3.11v2.661h-1.19V200.116z"/>
	<path fill="#000078" d="M177.665,201.951l-1.232,4.973h-1.569l-1.583-6.401v-0.406h1.121l1.303,5.519l1.401-5.519h1.219
		l1.345,5.477l1.345-5.477h1.079v0.406l-1.653,6.401h-1.583L177.665,201.951z"/>
	<path fill="#000078" d="M183.277,198.015c0-0.462,0.266-0.729,0.729-0.729c0.462,0,0.728,0.266,0.728,0.729
		c0,0.462-0.266,0.728-0.728,0.728C183.543,198.743,183.277,198.477,183.277,198.015z M183.403,200.116h1.19v6.808h-1.19V200.116z"
		/>
	<path fill="#000078" d="M186.637,201.152h-0.854v-1.036h0.854v-1.429h1.191v1.429h1.849v1.036h-1.849v3.391
		c0,1.05,0.392,1.414,1.499,1.414c0.126,0,0.294-0.014,0.435-0.042v1.022c-0.196,0.042-0.435,0.07-0.701,0.07
		c-1.653,0-2.423-0.799-2.423-2.451V201.152z"/>
	<path fill="#000078" d="M191.004,197.119h1.19v4.665c0.364-1.163,1.037-1.793,2.017-1.793c1.317,0,2.045,0.882,2.045,2.409v4.524
		h-1.191v-4.482c0-0.91-0.35-1.387-1.148-1.387c-1.064,0-1.723,1.274-1.723,3.151v2.718h-1.19V197.119z"/>
</g>
<rect x="506.234" y="248.173" fill="#73EDFF" width="98.202" height="36.67"/>
<g>
	<path fill="#000078" d="M525.424,261.715h1.409v10.341h-1.409V261.715z"/>
	<path fill="#000078" d="M529.328,261.715h1.633l4.402,7.876v-7.876h1.28v10.341h-1.376l-4.659-8.323v8.323h-1.28V261.715z"/>
	<path fill="#000078" d="M538.687,266.053h3.569v1.249h-3.569V266.053z"/>
	<path fill="#000078" d="M544.304,261.715h1.408v4.322h4.402v-4.322h1.408v10.341h-1.408v-4.738h-4.402v4.738h-1.408V261.715z"/>
	<path fill="#000078" d="M553.615,268.086v-2.417c0-2.593,1.36-4.098,3.714-4.098c2.385,0,3.713,1.473,3.713,4.113v2.417
		c0,2.594-1.36,4.098-3.713,4.098C554.943,272.199,553.615,270.727,553.615,268.086z M559.634,267.83v-1.873
		c0-2.129-0.721-3.089-2.305-3.089c-1.617,0-2.306,0.928-2.306,3.073v1.872c0,2.129,0.721,3.09,2.306,3.09
		C558.945,270.903,559.634,269.975,559.634,267.83z"/>
	<path fill="#000078" d="M562.976,268.086v-6.371h1.408v6.339c0,1.921,0.721,2.85,2.177,2.85c1.489,0,2.193-0.849,2.193-2.865
		v-6.323h1.393v6.371c0,2.625-1.217,4.113-3.586,4.113C564.128,272.199,562.976,270.743,562.976,268.086z"/>
	<path fill="#000078" d="M571.903,270.215c1.057,0.544,1.665,0.72,2.593,0.72c1.265,0,1.921-0.576,1.921-1.601
		c0-0.752-0.352-1.152-1.456-1.616l-0.864-0.353c-1.585-0.64-2.241-1.521-2.241-2.977c0-1.745,1.265-2.817,3.297-2.817
		c0.849,0,1.665,0.16,2.289,0.416v1.425c-0.784-0.385-1.44-0.576-2.305-0.576c-1.217,0-1.856,0.496-1.856,1.456
		c0,0.801,0.399,1.329,1.344,1.713l1.024,0.416c1.602,0.673,2.193,1.44,2.193,2.817c0,1.825-1.265,2.961-3.346,2.961
		c-0.944,0-1.792-0.176-2.593-0.544V270.215z"/>
	<path fill="#000078" d="M579.808,261.715h5.858v1.312h-4.45v3.138h4.226v1.28h-4.226v3.298h4.45v1.312h-5.858V261.715z"/>
</g>
<rect y="74.043" fill="#73EDFF" width="98.202" height="62.885"/>
<g>
	<path fill="#000078" d="M18.871,102.889h-2.833v-1.312h7.091v1.312h-2.849v9.028h-1.409V102.889z"/>
	<path fill="#000078" d="M24.086,107.947v-2.417c0-2.593,1.361-4.098,3.714-4.098c2.385,0,3.713,1.473,3.713,4.114v2.417
		c0,2.593-1.36,4.098-3.713,4.098C25.415,112.061,24.086,110.588,24.086,107.947z M30.104,107.691v-1.873
		c0-2.129-0.72-3.089-2.305-3.089c-1.617,0-2.305,0.928-2.305,3.073v1.873c0,2.129,0.72,3.089,2.305,3.089
		C29.416,110.765,30.104,109.836,30.104,107.691z"/>
	<path fill="#000078" d="M36.726,101.577h2.689c2.401,0,4.13,1.376,4.13,3.97v2.401c0,2.561-1.761,3.97-4.13,3.97h-2.689V101.577z
		 M39.447,110.605c1.745,0,2.689-0.88,2.689-2.961v-1.792c0-2.081-1.136-2.961-2.689-2.961h-1.312v7.715H39.447z"/>
	<path fill="#000078" d="M45.237,107.947v-2.417c0-2.593,1.361-4.098,3.714-4.098c2.385,0,3.713,1.473,3.713,4.114v2.417
		c0,2.593-1.36,4.098-3.713,4.098C46.566,112.061,45.237,110.588,45.237,107.947z M51.256,107.691v-1.873
		c0-2.129-0.72-3.089-2.305-3.089c-1.617,0-2.305,0.928-2.305,3.073v1.873c0,2.129,0.72,3.089,2.305,3.089
		C50.568,110.765,51.256,109.836,51.256,107.691z"/>
	<path fill="#000078" d="M57.878,101.577h1.409v9.028h4.082v1.312h-5.49V101.577z"/>
	<path fill="#000078" d="M65.046,101.577h1.409v10.34h-1.409V101.577z"/>
	<path fill="#000078" d="M68.39,110.076c1.056,0.544,1.665,0.72,2.593,0.72c1.265,0,1.921-0.576,1.921-1.601
		c0-0.752-0.352-1.152-1.457-1.617l-0.864-0.352c-1.585-0.64-2.241-1.521-2.241-2.977c0-1.745,1.265-2.817,3.297-2.817
		c0.849,0,1.665,0.16,2.289,0.417v1.424c-0.784-0.384-1.44-0.576-2.305-0.576c-1.216,0-1.856,0.496-1.856,1.457
		c0,0.8,0.4,1.329,1.344,1.713l1.024,0.416c1.601,0.672,2.193,1.44,2.193,2.817c0,1.825-1.264,2.961-3.345,2.961
		c-0.944,0-1.792-0.176-2.593-0.544V110.076z"/>
	<path fill="#000078" d="M77.911,102.889h-2.833v-1.312h7.091v1.312H79.32v9.028h-1.409V102.889z"/>
</g>
<g>
	<path fill="#000078" d="M5.378,5.057h5.858V6.37h-4.45v3.137h4.226v1.281H6.787v3.297h4.45v1.312H5.378V5.057z"/>
	<path fill="#000078" d="M15.522,15.398l-3.057-9.812V5.057h1.312l2.625,8.563l2.625-8.563h1.265v0.528l-3.089,9.812H15.522z"/>
	<path fill="#000078" d="M21.921,5.057h5.858V6.37h-4.45v3.137h4.226v1.281H23.33v3.297h4.45v1.312h-5.858V5.057z"/>
	<path fill="#000078" d="M31.266,15.398h-1.409V5.057h2.961c2.049,0,3.266,1.232,3.266,3.025v0.528c0,1.344-0.72,2.289-1.857,2.705
		l1.937,3.553v0.528h-1.297l-1.953-3.793c-0.128,0.016-0.272,0.016-0.4,0.016h-1.249V15.398z M32.77,10.339
		c1.265,0,1.905-0.56,1.905-1.905v-0.24c0-1.056-0.704-1.825-1.905-1.825h-1.504v3.97H32.77z"/>
	<path fill="#000078" d="M40.019,15.398v-4.162l-3.105-5.65V5.057h1.296l2.529,4.738L43.3,5.057h1.232v0.528l-3.105,5.65v4.162
		H40.019z"/>
	<path fill="#000078" d="M45.937,5.057h2.689c2.401,0,4.13,1.376,4.13,3.97v2.401c0,2.561-1.761,3.97-4.13,3.97h-2.689V5.057z
		 M48.659,14.085c1.745,0,2.689-0.88,2.689-2.961V9.331c0-2.081-1.136-2.961-2.689-2.961h-1.312v7.715H48.659z"/>
	<path fill="#000078" d="M59.811,12.709h-3.729l-0.8,2.689h-1.249v-0.528l3.121-9.812h1.633l3.137,9.812v0.528h-1.312L59.811,12.709
		z M57.955,6.482l-1.488,4.962h2.961L57.955,6.482z"/>
	<path fill="#000078" d="M64.898,15.398v-4.162l-3.105-5.65V5.057h1.296l2.529,4.738l2.561-4.738h1.232v0.528l-3.105,5.65v4.162
		H64.898z"/>
	<path fill="#000078" d="M76.066,6.37h-2.833V5.057h7.091V6.37h-2.849v9.028h-1.409V6.37z"/>
	<path fill="#000078" d="M85.987,12.709h-3.729l-0.8,2.689h-1.249v-0.528l3.121-9.812h1.633l3.137,9.812v0.528h-1.312L85.987,12.709
		z M84.13,6.482l-1.488,4.962h2.961L84.13,6.482z"/>
	<path fill="#000078" d="M89.377,13.557c1.056,0.544,1.665,0.72,2.593,0.72c1.265,0,1.921-0.576,1.921-1.601
		c0-0.752-0.352-1.152-1.457-1.617l-0.864-0.352c-1.585-0.64-2.241-1.521-2.241-2.977c0-1.745,1.265-2.817,3.297-2.817
		c0.849,0,1.665,0.16,2.289,0.417v1.424c-0.784-0.384-1.44-0.576-2.305-0.576c-1.216,0-1.856,0.496-1.856,1.457
		c0,0.8,0.4,1.329,1.344,1.713l1.024,0.416c1.601,0.672,2.193,1.44,2.193,2.817c0,1.825-1.264,2.961-3.345,2.961
		c-0.944,0-1.792-0.176-2.593-0.544V13.557z"/>
	<path fill="#000078" d="M97.281,5.057h1.409v10.34h-1.409V5.057z M102.819,15.398l-3.713-5.154v-0.16l3.954-5.026h1.232v0.544
		l-3.569,4.514l3.425,4.77v0.528L102.819,15.398z"/>
	<path fill="#000078" d="M105.313,13.557c1.056,0.544,1.665,0.72,2.593,0.72c1.265,0,1.921-0.576,1.921-1.601
		c0-0.752-0.352-1.152-1.457-1.617l-0.864-0.352c-1.585-0.64-2.241-1.521-2.241-2.977c0-1.745,1.265-2.817,3.297-2.817
		c0.849,0,1.665,0.16,2.289,0.417v1.424c-0.784-0.384-1.44-0.576-2.305-0.576c-1.216,0-1.856,0.496-1.856,1.457
		c0,0.8,0.4,1.329,1.344,1.713l1.024,0.416c1.601,0.672,2.193,1.44,2.193,2.817c0,1.825-1.264,2.961-3.345,2.961
		c-0.944,0-1.792-0.176-2.593-0.544V13.557z"/>
</g>
<g>
	<path fill="#000078" d="M4.978,320.531v-2.417c0-2.593,1.361-4.098,3.714-4.098c2.385,0,3.713,1.473,3.713,4.114v2.417
		c0,2.593-1.36,4.098-3.713,4.098C6.306,324.646,4.978,323.173,4.978,320.531z M10.996,320.275v-1.873
		c0-2.129-0.72-3.089-2.305-3.089c-1.617,0-2.305,0.929-2.305,3.073v1.873c0,2.129,0.72,3.089,2.305,3.089
		C10.308,323.349,10.996,322.42,10.996,320.275z"/>
	<path fill="#000078" d="M16.194,315.474h-2.833v-1.312h7.091v1.312h-2.849v9.027h-1.409V315.474z"/>
	<path fill="#000078" d="M22.05,314.161h1.409v4.321h4.402v-4.321h1.408v10.34H27.86v-4.737h-4.402v4.737H22.05V314.161z"/>
	<path fill="#000078" d="M31.762,314.161h5.858v1.312h-4.45v3.137h4.226v1.281H33.17v3.297h4.45v1.312h-5.858V314.161z"/>
	<path fill="#000078" d="M41.106,324.501h-1.409v-10.34h2.961c2.049,0,3.266,1.232,3.266,3.025v0.528
		c0,1.344-0.72,2.288-1.857,2.705l1.937,3.553v0.528h-1.297l-1.953-3.793c-0.128,0.016-0.272,0.016-0.4,0.016h-1.249V324.501z
		 M42.61,319.443c1.265,0,1.905-0.561,1.905-1.905v-0.24c0-1.056-0.704-1.824-1.905-1.824h-1.504v3.97H42.61z"/>
	<path fill="#000078" d="M53.282,315.474h-2.833v-1.312h7.091v1.312h-2.849v9.027h-1.409V315.474z"/>
	<path fill="#000078" d="M59.138,314.161h1.409v4.321h4.402v-4.321h1.408v10.34h-1.408v-4.737h-4.402v4.737h-1.409V314.161z"/>
	<path fill="#000078" d="M68.85,314.161h1.409v10.34H68.85V314.161z"/>
	<path fill="#000078" d="M72.753,314.161h1.633l4.401,7.875v-7.875h1.281v10.34h-1.376l-4.658-8.323v8.323h-1.28V314.161z"/>
	<path fill="#000078" d="M82.145,320.42v-2.321c0-2.577,1.488-4.082,3.985-4.082c0.913,0,1.713,0.145,2.545,0.448v1.457
		c-0.784-0.416-1.617-0.608-2.561-0.608c-1.729,0-2.561,0.96-2.561,2.978v2.017c0,2.049,0.8,3.058,2.449,3.058
		c0.672,0,1.121-0.129,1.633-0.417v-2.673h-1.777v-1.265h3.169v4.61c-0.785,0.64-1.921,1.024-3.025,1.024
		C83.458,324.646,82.145,323.205,82.145,320.42z"/>
	<path fill="#000078" d="M90.673,322.66c1.056,0.545,1.665,0.721,2.593,0.721c1.265,0,1.921-0.576,1.921-1.601
		c0-0.753-0.352-1.152-1.457-1.617l-0.864-0.352c-1.585-0.641-2.241-1.521-2.241-2.978c0-1.744,1.265-2.817,3.297-2.817
		c0.849,0,1.665,0.16,2.289,0.417v1.424c-0.784-0.384-1.44-0.576-2.305-0.576c-1.216,0-1.856,0.496-1.856,1.457
		c0,0.8,0.4,1.328,1.344,1.713l1.024,0.416c1.601,0.672,2.193,1.44,2.193,2.816c0,1.825-1.264,2.962-3.345,2.962
		c-0.944,0-1.792-0.177-2.593-0.545V322.66z"/>
	<path fill="#000078" d="M6.819,352.198c0.854,0,1.429,0.574,1.429,1.429c0,0.826-0.574,1.429-1.429,1.429
		c-0.827,0-1.429-0.603-1.429-1.429C5.39,352.773,5.992,352.198,6.819,352.198z"/>
	<path fill="#000078" d="M14.561,358.501h-1.232v-9.049h2.591c1.793,0,2.857,1.079,2.857,2.647v0.462
		c0,1.177-0.63,2.004-1.625,2.368l1.695,3.109v0.462h-1.135l-1.709-3.319c-0.112,0.014-0.238,0.014-0.35,0.014h-1.093V358.501z
		 M15.877,354.075c1.106,0,1.667-0.49,1.667-1.667v-0.21c0-0.925-0.617-1.598-1.667-1.598h-1.317v3.475H15.877z"/>
	<path fill="#000078" d="M20.202,355.518v-0.98c0-1.821,1.022-2.956,2.647-2.956c1.681,0,2.493,0.925,2.493,2.872v0.896h-3.978
		c0,1.61,0.546,2.241,1.933,2.241c0.7,0,1.261-0.168,1.891-0.589v1.093c-0.617,0.364-1.233,0.519-2.017,0.519
		C21.238,358.613,20.202,357.535,20.202,355.518z M24.208,354.425c0-1.358-0.364-1.863-1.373-1.863
		c-0.953,0-1.471,0.659-1.471,1.863H24.208z"/>
	<path fill="#000078" d="M26.529,356.75v-0.126c0-1.036,0.785-1.751,2.381-2.115l1.232-0.28v-0.35c0-0.826-0.504-1.274-1.373-1.274
		c-0.798,0-1.359,0.153-2.031,0.504v-1.064c0.603-0.294,1.247-0.463,2.102-0.463c1.583,0,2.479,0.854,2.479,2.41v4.51h-1.121v-1.078
		c-0.294,0.771-0.91,1.204-1.709,1.204C27.244,358.627,26.529,357.898,26.529,356.75z M30.143,355.812v-0.672l-1.064,0.252
		c-0.924,0.224-1.387,0.63-1.387,1.232v0.099c0,0.602,0.35,0.966,0.98,0.966C29.583,357.689,30.115,356.988,30.143,355.812z"/>
	<path fill="#000078" d="M36.976,348.696h1.19v9.805h-1.134v-1.064c-0.322,0.784-1.009,1.177-1.793,1.177
		c-1.597,0-2.339-0.925-2.339-2.886v-1.19c0-1.933,0.798-2.97,2.423-2.97c0.756,0,1.331,0.309,1.653,0.883V348.696z M36.976,355.742
		v-1.289c0-1.19-0.532-1.849-1.429-1.849c-1.079,0-1.457,0.616-1.457,1.849v1.373c0,1.204,0.477,1.765,1.415,1.765
		C36.457,357.591,36.976,356.933,36.976,355.742z"/>
	<path fill="#000078" d="M39.829,349.593c0-0.463,0.266-0.729,0.729-0.729c0.462,0,0.728,0.266,0.728,0.729
		c0,0.462-0.266,0.728-0.728,0.728C40.095,350.32,39.829,350.055,39.829,349.593z M39.955,351.693h1.19v6.808h-1.19V351.693z"/>
	<path fill="#000078" d="M42.937,351.693h1.135v1.793c0.322-1.288,1.008-1.919,2.045-1.919c1.289,0,2.031,0.841,2.031,2.354v4.58
		h-1.191v-4.37c0-1.022-0.35-1.499-1.106-1.499c-1.121,0-1.723,1.163-1.723,3.278v2.591h-1.19V351.693z"/>
	<path fill="#000078" d="M49.937,361.121v-1.107c0.574,0.295,1.205,0.448,1.807,0.448c1.513,0,2.059-0.672,2.059-2.241v-0.784
		c-0.322,0.784-0.953,1.177-1.737,1.177c-1.597,0-2.339-0.925-2.339-2.886v-1.19c0-1.933,0.798-2.97,2.423-2.97
		c0.84,0,1.387,0.378,1.709,0.98v-0.854h1.134v6.304c0,2.423-1.05,3.474-3.306,3.474C51.03,361.471,50.427,361.331,49.937,361.121z
		 M53.803,355.742v-1.289c0-1.19-0.49-1.849-1.429-1.849c-1.079,0-1.457,0.616-1.457,1.849v1.373c0,1.204,0.477,1.765,1.415,1.765
		C53.285,357.591,53.803,356.933,53.803,355.742z"/>
	<path fill="#000078" d="M6.819,368.198c0.854,0,1.429,0.574,1.429,1.429c0,0.826-0.574,1.429-1.429,1.429
		c-0.827,0-1.429-0.603-1.429-1.429C5.39,368.773,5.992,368.198,6.819,368.198z"/>
	<path fill="#000078" d="M13.328,365.452h2.353c2.101,0,3.614,1.205,3.614,3.474v2.102c0,2.241-1.541,3.474-3.614,3.474h-2.353
		V365.452z M15.709,373.353c1.526,0,2.353-0.771,2.353-2.592v-1.568c0-1.821-0.995-2.592-2.353-2.592h-1.149v6.752H15.709z"/>
	<path fill="#000078" d="M20.706,371.518v-0.98c0-1.821,1.022-2.956,2.647-2.956c1.681,0,2.493,0.925,2.493,2.872v0.896h-3.978
		c0,1.61,0.546,2.241,1.933,2.241c0.7,0,1.261-0.168,1.891-0.589v1.093c-0.617,0.364-1.233,0.519-2.017,0.519
		C21.742,374.613,20.706,373.535,20.706,371.518z M24.712,370.425c0-1.358-0.364-1.863-1.373-1.863
		c-0.953,0-1.471,0.659-1.471,1.863H24.712z"/>
	<path fill="#000078" d="M27.019,373.101c0.743,0.378,1.317,0.532,1.947,0.532c0.827,0,1.232-0.309,1.232-0.925
		c0-0.49-0.266-0.756-0.938-0.98l-0.686-0.224c-1.121-0.379-1.639-0.995-1.639-1.947c0-1.19,0.869-1.989,2.297-1.989
		c0.672,0,1.275,0.112,1.737,0.309v1.106c-0.56-0.252-1.05-0.421-1.765-0.421c-0.743,0-1.093,0.295-1.093,0.854
		c0,0.533,0.252,0.812,1.051,1.065l0.686,0.237c1.051,0.351,1.527,0.925,1.527,1.85c0,1.316-0.896,2.059-2.437,2.059
		c-0.729,0-1.387-0.14-1.919-0.42V373.101z"/>
	<path fill="#000078" d="M32.633,365.593c0-0.463,0.266-0.729,0.729-0.729c0.462,0,0.728,0.266,0.728,0.729
		c0,0.462-0.266,0.728-0.728,0.728C32.899,366.32,32.633,366.055,32.633,365.593z M32.759,367.693h1.19v6.808h-1.19V367.693z"/>
	<path fill="#000078" d="M35.783,377.121v-1.107c0.574,0.295,1.205,0.448,1.807,0.448c1.513,0,2.059-0.672,2.059-2.241v-0.784
		c-0.322,0.784-0.953,1.177-1.737,1.177c-1.597,0-2.339-0.925-2.339-2.886v-1.19c0-1.933,0.798-2.97,2.423-2.97
		c0.84,0,1.387,0.378,1.709,0.98v-0.854h1.134v6.304c0,2.423-1.05,3.474-3.306,3.474C36.876,377.471,36.273,377.331,35.783,377.121z
		 M39.649,371.742v-1.289c0-1.19-0.49-1.849-1.429-1.849c-1.079,0-1.457,0.616-1.457,1.849v1.373c0,1.204,0.477,1.765,1.415,1.765
		C39.131,373.591,39.649,372.933,39.649,371.742z"/>
	<path fill="#000078" d="M42.629,367.693h1.135v1.793c0.322-1.288,1.008-1.919,2.045-1.919c1.289,0,2.031,0.841,2.031,2.354v4.58
		h-1.191v-4.37c0-1.022-0.35-1.499-1.106-1.499c-1.121,0-1.723,1.163-1.723,3.278v2.591h-1.19V367.693z"/>
	<path fill="#000078" d="M56.239,369.528l-1.232,4.973h-1.569l-1.583-6.401v-0.406h1.121l1.303,5.52l1.401-5.52h1.219l1.345,5.478
		l1.345-5.478h1.079v0.406l-1.653,6.401H57.43L56.239,369.528z"/>
	<path fill="#000078" d="M61.752,371.63v-1.064c0-1.892,0.995-2.998,2.675-2.998c1.751,0,2.689,1.064,2.689,2.998v1.064
		c0,1.891-1.008,2.997-2.689,2.997C62.677,374.627,61.752,373.563,61.752,371.63z M65.927,371.728v-1.261
		c0-1.204-0.49-1.862-1.499-1.862c-1.037,0-1.485,0.658-1.485,1.862v1.261c0,1.205,0.477,1.863,1.485,1.863
		C65.464,373.591,65.927,372.933,65.927,371.728z"/>
	<path fill="#000078" d="M68.683,367.693h1.135v2.031c0.35-1.358,1.134-2.073,2.367-2.144v1.149
		c-1.569,0.098-2.312,1.246-2.312,3.109v2.661h-1.19V367.693z"/>
	<path fill="#000078" d="M73.358,364.696h1.19v9.805h-1.19V364.696z M74.815,370.972v-0.099l2.676-3.18h1.079v0.406l-2.396,2.788
		l2.339,3.207v0.406h-1.148L74.815,370.972z"/>
	<path fill="#000078" d="M6.819,384.198c0.854,0,1.429,0.574,1.429,1.429c0,0.826-0.574,1.429-1.429,1.429
		c-0.827,0-1.429-0.603-1.429-1.429C5.39,384.773,5.992,384.198,6.819,384.198z"/>
	<path fill="#000078" d="M17.67,388.148h-3.264l-0.701,2.354h-1.092v-0.462l2.731-8.587h1.429l2.745,8.587v0.462h-1.148
		L17.67,388.148z M16.045,382.699l-1.303,4.342h2.591L16.045,382.699z"/>
	<path fill="#000078" d="M21.041,384.731h-0.854v-1.037h0.854v-1.429h1.191v1.429h1.849v1.037h-1.849v3.39
		c0,1.051,0.392,1.415,1.499,1.415c0.126,0,0.294-0.015,0.435-0.043v1.023c-0.196,0.042-0.435,0.069-0.701,0.069
		c-1.653,0-2.423-0.798-2.423-2.451V384.731z"/>
	<path fill="#000078" d="M25.661,384.731h-0.854v-1.037h0.854v-1.429h1.191v1.429h1.849v1.037h-1.849v3.39
		c0,1.051,0.392,1.415,1.499,1.415c0.126,0,0.294-0.015,0.435-0.043v1.023c-0.196,0.042-0.435,0.069-0.701,0.069
		c-1.653,0-2.423-0.798-2.423-2.451V384.731z"/>
	<path fill="#000078" d="M29.805,387.518v-0.98c0-1.821,1.022-2.956,2.647-2.956c1.681,0,2.493,0.925,2.493,2.872v0.896h-3.978
		c0,1.61,0.546,2.241,1.933,2.241c0.7,0,1.261-0.168,1.891-0.589v1.093c-0.616,0.364-1.233,0.519-2.017,0.519
		C30.841,390.613,29.805,389.535,29.805,387.518z M33.811,386.425c0-1.358-0.364-1.863-1.373-1.863
		c-0.952,0-1.471,0.659-1.471,1.863H33.811z"/>
	<path fill="#000078" d="M36.497,383.693h1.135v1.793c0.322-1.288,1.008-1.919,2.045-1.919c1.289,0,2.031,0.841,2.031,2.354v4.58
		h-1.191v-4.37c0-1.022-0.35-1.499-1.106-1.499c-1.121,0-1.723,1.163-1.723,3.278v2.591h-1.19V383.693z"/>
	<path fill="#000078" d="M47.363,380.696h1.19v9.805h-1.134v-1.064c-0.322,0.784-1.009,1.177-1.793,1.177
		c-1.597,0-2.339-0.925-2.339-2.886v-1.19c0-1.933,0.798-2.97,2.423-2.97c0.756,0,1.331,0.309,1.653,0.883V380.696z M47.363,387.742
		v-1.289c0-1.19-0.532-1.849-1.429-1.849c-1.079,0-1.457,0.616-1.457,1.849v1.373c0,1.204,0.477,1.765,1.415,1.765
		C46.844,389.591,47.363,388.933,47.363,387.742z"/>
	<path fill="#000078" d="M50.216,381.593c0-0.463,0.266-0.729,0.729-0.729c0.462,0,0.728,0.266,0.728,0.729
		c0,0.462-0.266,0.728-0.728,0.728C50.482,382.32,50.216,382.055,50.216,381.593z M50.342,383.693h1.19v6.808h-1.19V383.693z"/>
	<path fill="#000078" d="M53.324,383.693h1.135v1.793c0.322-1.288,1.008-1.919,2.045-1.919c1.289,0,2.031,0.841,2.031,2.354v4.58
		h-1.191v-4.37c0-1.022-0.35-1.499-1.106-1.499c-1.121,0-1.723,1.163-1.723,3.278v2.591h-1.19V383.693z"/>
	<path fill="#000078" d="M60.324,393.121v-1.107c0.574,0.295,1.205,0.448,1.807,0.448c1.513,0,2.059-0.672,2.059-2.241v-0.784
		c-0.322,0.784-0.953,1.177-1.737,1.177c-1.597,0-2.339-0.925-2.339-2.886v-1.19c0-1.933,0.798-2.97,2.423-2.97
		c0.84,0,1.387,0.378,1.709,0.98v-0.854h1.134v6.304c0,2.423-1.05,3.474-3.306,3.474C61.417,393.471,60.814,393.331,60.324,393.121z
		 M64.19,387.742v-1.289c0-1.19-0.49-1.849-1.429-1.849c-1.079,0-1.457,0.616-1.457,1.849v1.373c0,1.204,0.477,1.765,1.415,1.765
		C63.672,389.591,64.19,388.933,64.19,387.742z"/>
	<path fill="#000078" d="M69.676,387.756v-1.401c0-1.736,0.995-2.773,2.773-2.773c0.448,0,0.967,0.07,1.317,0.196v1.093
		c-0.294-0.154-0.798-0.266-1.233-0.266c-1.092,0-1.667,0.546-1.667,1.862v1.177c0,1.289,0.533,1.947,1.625,1.947
		c0.448,0,0.911-0.099,1.303-0.322v1.036c-0.35,0.196-0.924,0.309-1.443,0.309C70.53,390.613,69.676,389.563,69.676,387.756z"/>
	<path fill="#000078" d="M74.996,387.63v-1.064c0-1.892,0.995-2.998,2.675-2.998c1.751,0,2.689,1.064,2.689,2.998v1.064
		c0,1.891-1.008,2.997-2.689,2.997C75.92,390.627,74.996,389.563,74.996,387.63z M79.17,387.728v-1.261
		c0-1.204-0.49-1.862-1.499-1.862c-1.037,0-1.485,0.658-1.485,1.862v1.261c0,1.205,0.477,1.863,1.485,1.863
		C78.707,389.591,79.17,388.933,79.17,387.728z"/>
	<path fill="#000078" d="M81.926,383.693h1.135v1.793c0.322-1.288,1.008-1.919,2.045-1.919c1.289,0,2.031,0.841,2.031,2.354v4.58
		h-1.191v-4.37c0-1.022-0.35-1.499-1.106-1.499c-1.121,0-1.723,1.163-1.723,3.278v2.591h-1.19V383.693z"/>
	<path fill="#000078" d="M89.192,384.731h-0.84v-1.037h0.84v-0.434c0-1.751,0.938-2.647,2.844-2.634h0.196v1.022h-0.238
		c-1.177,0-1.611,0.393-1.611,1.513v0.532h1.779v1.037h-1.779v5.771h-1.191V384.731z"/>
	<path fill="#000078" d="M92.874,387.518v-0.98c0-1.821,1.022-2.956,2.647-2.956c1.681,0,2.493,0.925,2.493,2.872v0.896h-3.978
		c0,1.61,0.546,2.241,1.933,2.241c0.7,0,1.261-0.168,1.891-0.589v1.093c-0.617,0.364-1.233,0.519-2.017,0.519
		C93.91,390.613,92.874,389.535,92.874,387.518z M96.88,386.425c0-1.358-0.364-1.863-1.373-1.863c-0.953,0-1.471,0.659-1.471,1.863
		H96.88z"/>
	<path fill="#000078" d="M99.565,383.693h1.135v2.031c0.35-1.358,1.134-2.073,2.367-2.144v1.149
		c-1.569,0.098-2.312,1.246-2.312,3.109v2.661h-1.19V383.693z"/>
	<path fill="#000078" d="M104.017,387.518v-0.98c0-1.821,1.022-2.956,2.647-2.956c1.681,0,2.493,0.925,2.493,2.872v0.896h-3.978
		c0,1.61,0.546,2.241,1.933,2.241c0.7,0,1.261-0.168,1.891-0.589v1.093c-0.617,0.364-1.233,0.519-2.017,0.519
		C105.054,390.613,104.017,389.535,104.017,387.518z M108.023,386.425c0-1.358-0.364-1.863-1.373-1.863
		c-0.953,0-1.471,0.659-1.471,1.863H108.023z"/>
	<path fill="#000078" d="M110.709,383.693h1.135v1.793c0.322-1.288,1.008-1.919,2.045-1.919c1.289,0,2.031,0.841,2.031,2.354v4.58
		h-1.191v-4.37c0-1.022-0.35-1.499-1.106-1.499c-1.121,0-1.723,1.163-1.723,3.278v2.591h-1.19V383.693z"/>
	<path fill="#000078" d="M117.443,387.756v-1.401c0-1.736,0.995-2.773,2.773-2.773c0.448,0,0.967,0.07,1.317,0.196v1.093
		c-0.294-0.154-0.798-0.266-1.233-0.266c-1.092,0-1.667,0.546-1.667,1.862v1.177c0,1.289,0.533,1.947,1.625,1.947
		c0.448,0,0.911-0.099,1.303-0.322v1.036c-0.35,0.196-0.924,0.309-1.443,0.309C118.297,390.613,117.443,389.563,117.443,387.756z"/>
	<path fill="#000078" d="M122.763,387.518v-0.98c0-1.821,1.022-2.956,2.647-2.956c1.681,0,2.493,0.925,2.493,2.872v0.896h-3.978
		c0,1.61,0.546,2.241,1.933,2.241c0.7,0,1.261-0.168,1.891-0.589v1.093c-0.616,0.364-1.233,0.519-2.017,0.519
		C123.799,390.613,122.763,389.535,122.763,387.518z M126.769,386.425c0-1.358-0.364-1.863-1.373-1.863
		c-0.952,0-1.471,0.659-1.471,1.863H126.769z"/>
	<path fill="#000078" d="M129.076,389.101c0.743,0.378,1.317,0.532,1.947,0.532c0.827,0,1.233-0.309,1.233-0.925
		c0-0.49-0.267-0.756-0.939-0.98l-0.686-0.224c-1.121-0.379-1.639-0.995-1.639-1.947c0-1.19,0.869-1.989,2.297-1.989
		c0.672,0,1.275,0.112,1.737,0.309v1.106c-0.56-0.252-1.05-0.421-1.765-0.421c-0.743,0-1.093,0.295-1.093,0.854
		c0,0.533,0.252,0.812,1.051,1.065l0.686,0.237c1.051,0.351,1.527,0.925,1.527,1.85c0,1.316-0.896,2.059-2.437,2.059
		c-0.729,0-1.387-0.14-1.919-0.42V389.101z"/>
</g>
<g>
	<path fill="#000078" d="M6.819,224.529c0.854,0,1.429,0.574,1.429,1.429c0,0.826-0.574,1.429-1.429,1.429
		c-0.827,0-1.429-0.603-1.429-1.429C5.39,225.103,5.992,224.529,6.819,224.529z"/>
	<path fill="#000078" d="M13.188,227.358v-5.575h1.232v5.547c0,1.681,0.63,2.493,1.905,2.493c1.303,0,1.919-0.742,1.919-2.507
		v-5.533h1.219v5.575c0,2.297-1.064,3.6-3.138,3.6C14.196,230.958,13.188,229.684,13.188,227.358z"/>
	<path fill="#000078" d="M21.294,224.024h1.135v2.031c0.35-1.359,1.134-2.073,2.367-2.144v1.149
		c-1.569,0.098-2.312,1.247-2.312,3.109v2.662h-1.19V224.024z"/>
	<path fill="#000078" d="M26.012,233.452v-1.107c0.574,0.294,1.205,0.448,1.807,0.448c1.513,0,2.059-0.672,2.059-2.241v-0.784
		c-0.322,0.784-0.953,1.177-1.737,1.177c-1.597,0-2.339-0.925-2.339-2.886v-1.191c0-1.933,0.798-2.969,2.423-2.969
		c0.84,0,1.387,0.378,1.709,0.98v-0.854h1.134v6.303c0,2.423-1.05,3.474-3.306,3.474C27.104,233.802,26.502,233.662,26.012,233.452z
		 M29.878,228.073v-1.289c0-1.19-0.49-1.849-1.429-1.849c-1.079,0-1.457,0.616-1.457,1.849v1.373c0,1.205,0.477,1.765,1.415,1.765
		C29.359,229.921,29.878,229.263,29.878,228.073z"/>
	<path fill="#000078" d="M32.633,227.849v-0.981c0-1.821,1.022-2.956,2.647-2.956c1.681,0,2.493,0.925,2.493,2.872v0.896h-3.978
		c0,1.611,0.546,2.241,1.933,2.241c0.7,0,1.261-0.168,1.891-0.588v1.093c-0.617,0.364-1.233,0.519-2.017,0.519
		C33.67,230.944,32.633,229.866,32.633,227.849z M36.64,226.756c0-1.359-0.364-1.863-1.373-1.863c-0.953,0-1.471,0.659-1.471,1.863
		H36.64z"/>
	<path fill="#000078" d="M39.325,224.024h1.135v1.793c0.322-1.289,1.008-1.919,2.045-1.919c1.289,0,2.031,0.84,2.031,2.353v4.581
		h-1.191v-4.37c0-1.023-0.35-1.499-1.106-1.499c-1.121,0-1.723,1.163-1.723,3.278v2.591h-1.19V224.024z"/>
	<path fill="#000078" d="M46.535,225.061h-0.854v-1.037h0.854v-1.429h1.191v1.429h1.849v1.037h-1.849v3.39
		c0,1.051,0.392,1.415,1.499,1.415c0.126,0,0.294-0.014,0.435-0.042v1.023c-0.196,0.042-0.435,0.07-0.701,0.07
		c-1.653,0-2.423-0.798-2.423-2.451V225.061z"/>
	<path fill="#000078" d="M6.819,240.529c0.854,0,1.429,0.574,1.429,1.429c0,0.826-0.574,1.429-1.429,1.429
		c-0.827,0-1.429-0.603-1.429-1.429C5.39,241.103,5.992,240.529,6.819,240.529z"/>
	<path fill="#000078" d="M15.023,238.932h-2.479v-1.148h6.206v1.148h-2.494v7.9h-1.232V238.932z"/>
	<path fill="#000078" d="M19.726,243.961v-1.064c0-1.891,0.995-2.998,2.675-2.998c1.751,0,2.689,1.064,2.689,2.998v1.064
		c0,1.891-1.008,2.998-2.689,2.998C20.65,246.958,19.726,245.894,19.726,243.961z M23.9,244.059v-1.261
		c0-1.205-0.49-1.863-1.499-1.863c-1.037,0-1.485,0.658-1.485,1.863v1.261c0,1.205,0.477,1.863,1.485,1.863
		C23.437,245.921,23.9,245.263,23.9,244.059z"/>
	<path fill="#000078" d="M29.582,237.783h2.353c2.101,0,3.614,1.205,3.614,3.474v2.102c0,2.241-1.541,3.474-3.614,3.474h-2.353
		V237.783z M31.963,245.684c1.526,0,2.353-0.771,2.353-2.592v-1.569c0-1.821-0.995-2.591-2.353-2.591h-1.149v6.752H31.963z"/>
	<path fill="#000078" d="M36.959,243.961v-1.064c0-1.891,0.995-2.998,2.675-2.998c1.751,0,2.689,1.064,2.689,2.998v1.064
		c0,1.891-1.008,2.998-2.689,2.998C37.884,246.958,36.959,245.894,36.959,243.961z M41.134,244.059v-1.261
		c0-1.205-0.49-1.863-1.499-1.863c-1.037,0-1.485,0.658-1.485,1.863v1.261c0,1.205,0.477,1.863,1.485,1.863
		C40.671,245.921,41.134,245.263,41.134,244.059z"/>
	<path fill="#000078" d="M6.819,256.528c0.854,0,1.429,0.574,1.429,1.43c0,0.826-0.574,1.428-1.429,1.428
		c-0.827,0-1.429-0.602-1.429-1.428C5.39,257.103,5.992,256.528,6.819,256.528z"/>
	<path fill="#000078" d="M17.67,260.479h-3.264l-0.701,2.354h-1.092v-0.462l2.731-8.587h1.429l2.745,8.587v0.462h-1.148
		L17.67,260.479z M16.045,255.03l-1.303,4.342h2.591L16.045,255.03z"/>
	<path fill="#000078" d="M20.79,256.024h1.135v1.793c0.322-1.289,1.008-1.919,2.045-1.919c1.289,0,2.031,0.841,2.031,2.353v4.581
		H24.81v-4.37c0-1.023-0.35-1.499-1.106-1.499c-1.121,0-1.723,1.163-1.723,3.278v2.591h-1.19V256.024z"/>
	<path fill="#000078" d="M27.748,256.024h1.135v1.793c0.322-1.289,1.008-1.919,2.045-1.919c1.289,0,2.031,0.841,2.031,2.353v4.581
		h-1.191v-4.37c0-1.023-0.35-1.499-1.106-1.499c-1.121,0-1.723,1.163-1.723,3.278v2.591h-1.19V256.024z"/>
	<path fill="#000078" d="M34.481,259.96v-1.064c0-1.891,0.995-2.997,2.675-2.997c1.751,0,2.689,1.064,2.689,2.997v1.064
		c0,1.892-1.008,2.998-2.689,2.998C35.406,262.958,34.481,261.894,34.481,259.96z M38.656,260.059v-1.261
		c0-1.205-0.49-1.863-1.499-1.863c-1.037,0-1.485,0.658-1.485,1.863v1.261c0,1.204,0.477,1.862,1.485,1.862
		C38.193,261.921,38.656,261.263,38.656,260.059z"/>
	<path fill="#000078" d="M41.355,260.648v-4.623h1.191v4.482c0,0.91,0.322,1.387,1.064,1.387c1.051,0,1.681-1.289,1.681-3.348
		v-2.521h1.191v6.808h-1.135v-1.821c-0.294,1.205-0.966,1.947-2.017,1.947C42.056,262.958,41.355,262.118,41.355,260.648z"/>
	<path fill="#000078" d="M48.271,256.024h1.135v1.793c0.322-1.289,1.008-1.919,2.045-1.919c1.289,0,2.031,0.841,2.031,2.353v4.581
		h-1.191v-4.37c0-1.023-0.35-1.499-1.106-1.499c-1.121,0-1.723,1.163-1.723,3.278v2.591h-1.19V256.024z"/>
	<path fill="#000078" d="M55.005,260.087v-1.401c0-1.737,0.995-2.773,2.773-2.773c0.448,0,0.967,0.07,1.317,0.196v1.093
		c-0.294-0.154-0.798-0.267-1.233-0.267c-1.092,0-1.667,0.547-1.667,1.863v1.177c0,1.288,0.533,1.946,1.625,1.946
		c0.448,0,0.911-0.098,1.303-0.321v1.036c-0.35,0.196-0.924,0.309-1.443,0.309C55.86,262.944,55.005,261.894,55.005,260.087z"/>
	<path fill="#000078" d="M60.325,259.849v-0.98c0-1.821,1.022-2.956,2.647-2.956c1.681,0,2.493,0.925,2.493,2.872v0.896h-3.978
		c0,1.61,0.546,2.24,1.933,2.24c0.7,0,1.261-0.168,1.891-0.588v1.093c-0.616,0.364-1.233,0.519-2.017,0.519
		C61.362,262.944,60.325,261.866,60.325,259.849z M64.332,258.756c0-1.358-0.364-1.863-1.373-1.863
		c-0.952,0-1.471,0.659-1.471,1.863H64.332z"/>
	<path fill="#000078" d="M67.017,256.024h1.135v1.793c0.322-1.289,1.022-1.919,2.059-1.919c1.121,0,1.821,0.63,1.975,1.807
		c0.336-1.232,1.037-1.807,2.045-1.807c1.289,0,2.017,0.841,2.017,2.353v4.581h-1.19v-4.37c0-1.023-0.351-1.499-1.107-1.499
		c-1.121,0-1.723,1.163-1.723,3.278v2.591h-1.191v-4.37c0-1.023-0.35-1.499-1.106-1.499c-1.121,0-1.723,1.163-1.723,3.278v2.591
		h-1.19V256.024z"/>
	<path fill="#000078" d="M77.769,259.849v-0.98c0-1.821,1.022-2.956,2.647-2.956c1.681,0,2.493,0.925,2.493,2.872v0.896h-3.978
		c0,1.61,0.546,2.24,1.933,2.24c0.7,0,1.261-0.168,1.891-0.588v1.093c-0.617,0.364-1.233,0.519-2.017,0.519
		C78.806,262.944,77.769,261.866,77.769,259.849z M81.775,258.756c0-1.358-0.364-1.863-1.373-1.863
		c-0.953,0-1.471,0.659-1.471,1.863H81.775z"/>
	<path fill="#000078" d="M84.461,256.024h1.135v1.793c0.322-1.289,1.008-1.919,2.045-1.919c1.289,0,2.031,0.841,2.031,2.353v4.581
		h-1.191v-4.37c0-1.023-0.35-1.499-1.106-1.499c-1.121,0-1.723,1.163-1.723,3.278v2.591h-1.19V256.024z"/>
	<path fill="#000078" d="M91.671,257.062h-0.854v-1.037h0.854v-1.429h1.191v1.429h1.849v1.037h-1.849v3.389
		c0,1.051,0.392,1.416,1.499,1.416c0.126,0,0.294-0.015,0.435-0.043v1.023c-0.196,0.041-0.435,0.069-0.701,0.069
		c-1.653,0-2.423-0.798-2.423-2.451V257.062z"/>
	<path fill="#000078" d="M6.819,272.528c0.854,0,1.429,0.574,1.429,1.43c0,0.826-0.574,1.428-1.429,1.428
		c-0.827,0-1.429-0.602-1.429-1.428C5.39,273.103,5.992,272.528,6.819,272.528z"/>
	<path fill="#000078" d="M12.964,275.372v-2.115c0-2.325,1.247-3.6,3.348-3.6c0.672,0,1.233,0.098,1.695,0.294v1.233
		c-0.504-0.253-1.121-0.393-1.695-0.393c-1.401,0-2.115,0.826-2.115,2.703v1.639c0,1.779,0.714,2.689,2.199,2.689
		c0.616,0,1.177-0.154,1.723-0.518v1.232c-0.49,0.279-1.121,0.42-1.821,0.42C14.07,278.958,12.964,277.669,12.964,275.372z"/>
	<path fill="#000078" d="M19.32,275.96v-1.064c0-1.891,0.995-2.997,2.675-2.997c1.751,0,2.689,1.064,2.689,2.997v1.064
		c0,1.892-1.008,2.998-2.689,2.998C20.244,278.958,19.32,277.894,19.32,275.96z M23.494,276.059v-1.261
		c0-1.205-0.49-1.863-1.499-1.863c-1.037,0-1.485,0.658-1.485,1.863v1.261c0,1.204,0.477,1.862,1.485,1.862
		C23.032,277.921,23.494,277.263,23.494,276.059z"/>
	<path fill="#000078" d="M26.25,272.024h1.135v1.793c0.322-1.289,1.008-1.919,2.045-1.919c1.289,0,2.031,0.841,2.031,2.353v4.581
		H30.27v-4.37c0-1.023-0.35-1.499-1.106-1.499c-1.121,0-1.723,1.163-1.723,3.278v2.591h-1.19V272.024z"/>
	<path fill="#000078" d="M34.679,278.832l-2.101-6.401v-0.406h1.121l1.681,5.393l1.779-5.393h1.079v0.406l-2.213,6.401H34.679z"/>
	<path fill="#000078" d="M39.144,275.849v-0.98c0-1.821,1.022-2.956,2.647-2.956c1.681,0,2.493,0.925,2.493,2.872v0.896h-3.978
		c0,1.61,0.546,2.24,1.933,2.24c0.7,0,1.261-0.168,1.891-0.588v1.093c-0.616,0.364-1.233,0.519-2.017,0.519
		C40.18,278.944,39.144,277.866,39.144,275.849z M43.15,274.756c0-1.358-0.364-1.863-1.373-1.863c-0.952,0-1.471,0.659-1.471,1.863
		H43.15z"/>
	<path fill="#000078" d="M45.835,272.024h1.135v2.031c0.35-1.359,1.134-2.073,2.367-2.144v1.149
		c-1.569,0.098-2.312,1.246-2.312,3.109v2.661h-1.19V272.024z"/>
	<path fill="#000078" d="M50.133,277.431c0.743,0.379,1.317,0.533,1.947,0.533c0.827,0,1.233-0.309,1.233-0.925
		c0-0.49-0.267-0.757-0.939-0.98l-0.686-0.224c-1.121-0.379-1.639-0.995-1.639-1.947c0-1.191,0.869-1.989,2.297-1.989
		c0.672,0,1.275,0.112,1.737,0.308v1.107c-0.56-0.252-1.05-0.421-1.765-0.421c-0.743,0-1.093,0.294-1.093,0.854
		c0,0.533,0.252,0.812,1.051,1.064l0.686,0.238c1.051,0.351,1.527,0.925,1.527,1.85c0,1.316-0.896,2.059-2.437,2.059
		c-0.729,0-1.387-0.141-1.919-0.42V277.431z"/>
	<path fill="#000078" d="M55.509,277.081v-0.126c0-1.036,0.785-1.751,2.381-2.115l1.232-0.28v-0.35c0-0.826-0.504-1.275-1.373-1.275
		c-0.798,0-1.359,0.154-2.031,0.504v-1.064c0.603-0.293,1.247-0.462,2.102-0.462c1.583,0,2.479,0.854,2.479,2.409v4.511h-1.121
		v-1.079c-0.294,0.771-0.91,1.205-1.709,1.205C56.223,278.958,55.509,278.23,55.509,277.081z M59.123,276.143v-0.673l-1.064,0.252
		c-0.924,0.225-1.387,0.631-1.387,1.233v0.099c0,0.602,0.35,0.966,0.98,0.966C58.562,278.02,59.095,277.319,59.123,276.143z"/>
	<path fill="#000078" d="M62.299,273.062h-0.854v-1.037h0.854v-1.429h1.191v1.429h1.849v1.037H63.49v3.389
		c0,1.051,0.392,1.416,1.499,1.416c0.126,0,0.294-0.015,0.435-0.043v1.023c-0.196,0.041-0.435,0.069-0.701,0.069
		c-1.653,0-2.423-0.798-2.423-2.451V273.062z"/>
	<path fill="#000078" d="M66.54,269.923c0-0.462,0.266-0.729,0.729-0.729c0.462,0,0.728,0.267,0.728,0.729
		c0,0.463-0.266,0.729-0.728,0.729C66.807,270.651,66.54,270.386,66.54,269.923z M66.666,272.024h1.19v6.808h-1.19V272.024z"/>
	<path fill="#000078" d="M69.424,275.96v-1.064c0-1.891,0.995-2.997,2.675-2.997c1.751,0,2.689,1.064,2.689,2.997v1.064
		c0,1.892-1.008,2.998-2.689,2.998C70.349,278.958,69.424,277.894,69.424,275.96z M73.599,276.059v-1.261
		c0-1.205-0.49-1.863-1.499-1.863c-1.037,0-1.485,0.658-1.485,1.863v1.261c0,1.204,0.477,1.862,1.485,1.862
		C73.136,277.921,73.599,277.263,73.599,276.059z"/>
	<path fill="#000078" d="M76.354,272.024h1.135v1.793c0.322-1.289,1.008-1.919,2.045-1.919c1.289,0,2.031,0.841,2.031,2.353v4.581
		h-1.191v-4.37c0-1.023-0.35-1.499-1.106-1.499c-1.121,0-1.723,1.163-1.723,3.278v2.591h-1.19V272.024z"/>
</g>
<g>
	<g>
		<path fill="#000078" d="M118.282,147.784c0.854,0,1.429,0.574,1.429,1.429c0,0.826-0.574,1.429-1.429,1.429
			c-0.827,0-1.429-0.603-1.429-1.429C116.853,148.358,117.455,147.784,118.282,147.784z"/>
		<path fill="#000078" d="M124.791,145.039h1.232v9.049h-1.232V145.039z"/>
		<path fill="#000078" d="M128.011,147.28h1.135v1.793c0.322-1.289,1.008-1.919,2.045-1.919c1.289,0,2.031,0.84,2.031,2.353v4.581
			h-1.191v-4.37c0-1.023-0.35-1.499-1.106-1.499c-1.121,0-1.723,1.163-1.723,3.278v2.591h-1.19V147.28z"/>
		<path fill="#000078" d="M134.717,150.053h2.773v0.938h-2.773V150.053z"/>
		<path fill="#000078" d="M139.029,147.28h1.135v1.177c0.252-0.827,0.896-1.303,1.793-1.303c1.583,0,2.409,1.037,2.409,2.983v1.093
			c0,1.961-0.854,2.983-2.493,2.983c-0.757,0-1.331-0.336-1.653-0.966v3.698h-1.19V147.28z M140.219,150.166v1.12
			c0,1.177,0.588,1.891,1.555,1.891c0.966,0,1.401-0.574,1.401-1.849v-1.289c0-1.218-0.462-1.849-1.387-1.849
			C140.78,148.191,140.219,148.891,140.219,150.166z"/>
		<path fill="#000078" d="M145.734,151.104v-0.981c0-1.821,1.022-2.956,2.647-2.956c1.681,0,2.493,0.925,2.493,2.872v0.896h-3.978
			c0,1.611,0.546,2.241,1.933,2.241c0.7,0,1.261-0.168,1.891-0.588v1.093c-0.616,0.364-1.233,0.519-2.017,0.519
			C146.771,154.2,145.734,153.121,145.734,151.104z M149.741,150.011c0-1.359-0.364-1.863-1.373-1.863
			c-0.952,0-1.471,0.659-1.471,1.863H149.741z"/>
		<path fill="#000078" d="M152.426,147.28h1.135v2.031c0.35-1.359,1.134-2.073,2.367-2.144v1.149
			c-1.569,0.098-2.312,1.247-2.312,3.109v2.662h-1.19V147.28z"/>
		<path fill="#000078" d="M156.724,152.687c0.743,0.378,1.317,0.532,1.947,0.532c0.827,0,1.233-0.308,1.233-0.924
			c0-0.49-0.267-0.756-0.939-0.98l-0.686-0.224c-1.121-0.378-1.639-0.995-1.639-1.947c0-1.19,0.869-1.989,2.297-1.989
			c0.672,0,1.275,0.112,1.737,0.308v1.106c-0.56-0.252-1.05-0.42-1.765-0.42c-0.743,0-1.093,0.294-1.093,0.854
			c0,0.533,0.252,0.812,1.051,1.065l0.686,0.238c1.051,0.351,1.527,0.925,1.527,1.849c0,1.317-0.896,2.059-2.437,2.059
			c-0.729,0-1.387-0.14-1.919-0.42V152.687z"/>
		<path fill="#000078" d="M162.24,151.216v-1.064c0-1.891,0.995-2.998,2.675-2.998c1.751,0,2.689,1.064,2.689,2.998v1.064
			c0,1.891-1.008,2.998-2.689,2.998C163.164,154.213,162.24,153.149,162.24,151.216z M166.414,151.314v-1.261
			c0-1.205-0.49-1.863-1.499-1.863c-1.037,0-1.485,0.658-1.485,1.863v1.261c0,1.205,0.477,1.863,1.485,1.863
			C165.952,153.177,166.414,152.519,166.414,151.314z"/>
		<path fill="#000078" d="M169.17,147.28h1.135v1.793c0.322-1.289,1.008-1.919,2.045-1.919c1.289,0,2.031,0.84,2.031,2.353v4.581
			h-1.191v-4.37c0-1.023-0.35-1.499-1.106-1.499c-1.121,0-1.723,1.163-1.723,3.278v2.591h-1.19V147.28z"/>
		<path fill="#000078" d="M118.282,163.784c0.854,0,1.429,0.574,1.429,1.429c0,0.826-0.574,1.429-1.429,1.429
			c-0.827,0-1.429-0.603-1.429-1.429C116.853,164.358,117.455,163.784,118.282,163.784z"/>
		<path fill="#000078" d="M124.791,161.039h2.409c1.835,0,3.054,1.022,3.054,2.801v0.406c0,1.905-1.177,2.886-3.054,2.886h-1.177
			v2.956h-1.232V161.039z M127.13,165.997c1.331,0,1.891-0.504,1.891-1.821v-0.266c0-1.121-0.729-1.723-1.933-1.723h-1.064v3.81
			H127.13z"/>
		<path fill="#000078" d="M131.692,160.282h1.19v4.665c0.364-1.163,1.037-1.793,2.017-1.793c1.317,0,2.045,0.882,2.045,2.409v4.524
			h-1.191v-4.482c0-0.911-0.35-1.387-1.148-1.387c-1.064,0-1.723,1.274-1.723,3.152v2.717h-1.19V160.282z"/>
		<path fill="#000078" d="M138.468,167.216v-1.064c0-1.891,0.995-2.998,2.675-2.998c1.751,0,2.689,1.064,2.689,2.998v1.064
			c0,1.891-1.008,2.998-2.689,2.998C139.393,170.213,138.468,169.149,138.468,167.216z M142.643,167.314v-1.261
			c0-1.205-0.49-1.863-1.499-1.863c-1.037,0-1.485,0.658-1.485,1.863v1.261c0,1.205,0.477,1.863,1.485,1.863
			C142.18,169.177,142.643,168.519,142.643,167.314z"/>
		<path fill="#000078" d="M145.398,163.28h1.135v1.793c0.322-1.289,1.008-1.919,2.045-1.919c1.289,0,2.031,0.84,2.031,2.353v4.581
			h-1.191v-4.37c0-1.023-0.35-1.499-1.106-1.499c-1.121,0-1.723,1.163-1.723,3.278v2.591h-1.19V163.28z"/>
		<path fill="#000078" d="M152.132,167.104v-0.981c0-1.821,1.022-2.956,2.647-2.956c1.681,0,2.493,0.925,2.493,2.872v0.896h-3.978
			c0,1.611,0.546,2.241,1.933,2.241c0.7,0,1.261-0.168,1.891-0.588v1.093c-0.617,0.364-1.233,0.519-2.017,0.519
			C153.169,170.2,152.132,169.121,152.132,167.104z M156.139,166.011c0-1.359-0.364-1.863-1.373-1.863
			c-0.953,0-1.471,0.659-1.471,1.863H156.139z"/>
		<path fill="#000078" d="M118.282,179.784c0.854,0,1.429,0.574,1.429,1.429c0,0.826-0.574,1.429-1.429,1.429
			c-0.827,0-1.429-0.603-1.429-1.429C116.853,180.358,117.455,179.784,118.282,179.784z"/>
		<path fill="#000078" d="M126.724,186.087l-2.676-8.586v-0.462h1.149l2.297,7.494l2.297-7.494h1.106v0.462l-2.703,8.586H126.724z"
			/>
		<path fill="#000078" d="M132,177.179c0-0.462,0.266-0.729,0.729-0.729c0.462,0,0.728,0.266,0.728,0.729
			c0,0.462-0.266,0.728-0.728,0.728C132.267,177.907,132,177.641,132,177.179z M132.126,179.28h1.19v6.808h-1.19V179.28z"/>
		<path fill="#000078" d="M139.017,176.282h1.19v9.805h-1.134v-1.064c-0.322,0.784-1.009,1.177-1.793,1.177
			c-1.597,0-2.339-0.925-2.339-2.886v-1.191c0-1.933,0.798-2.969,2.423-2.969c0.756,0,1.331,0.308,1.653,0.882V176.282z
			 M139.017,183.328v-1.289c0-1.19-0.532-1.849-1.429-1.849c-1.079,0-1.457,0.616-1.457,1.849v1.373
			c0,1.205,0.477,1.765,1.415,1.765C138.498,185.177,139.017,184.519,139.017,183.328z"/>
		<path fill="#000078" d="M141.772,183.104v-0.981c0-1.821,1.022-2.956,2.647-2.956c1.681,0,2.493,0.925,2.493,2.872v0.896h-3.978
			c0,1.611,0.546,2.241,1.933,2.241c0.7,0,1.261-0.168,1.891-0.588v1.093c-0.617,0.364-1.233,0.519-2.017,0.519
			C142.809,186.2,141.772,185.121,141.772,183.104z M145.778,182.011c0-1.359-0.364-1.863-1.373-1.863
			c-0.953,0-1.471,0.659-1.471,1.863H145.778z"/>
		<path fill="#000078" d="M148.24,183.216v-1.064c0-1.891,0.995-2.998,2.675-2.998c1.751,0,2.689,1.064,2.689,2.998v1.064
			c0,1.891-1.008,2.998-2.689,2.998C149.164,186.213,148.24,185.149,148.24,183.216z M152.414,183.314v-1.261
			c0-1.205-0.49-1.863-1.499-1.863c-1.037,0-1.485,0.658-1.485,1.863v1.261c0,1.205,0.477,1.863,1.485,1.863
			C151.952,185.177,152.414,184.519,152.414,183.314z"/>
	</g>
</g>
<g>
	<path fill="#000078" d="M224.409,5.057h2.689c2.401,0,4.13,1.376,4.13,3.97v2.401c0,2.561-1.761,3.97-4.13,3.97h-2.689V5.057z
		 M227.13,14.085c1.745,0,2.689-0.88,2.689-2.961V9.331c0-2.081-1.136-2.961-2.689-2.961h-1.312v7.715H227.13z"/>
	<path fill="#000078" d="M233.321,5.057h5.858V6.37h-4.45v3.137h4.226v1.281h-4.226v3.297h4.45v1.312h-5.858V5.057z"/>
	<path fill="#000078" d="M241.256,5.057h1.409v9.028h4.082v1.312h-5.49V5.057z"/>
	<path fill="#000078" d="M248.424,5.057h1.409v10.34h-1.409V5.057z"/>
	<path fill="#000078" d="M254.537,15.398l-3.057-9.812V5.057h1.312l2.625,8.563l2.625-8.563h1.265v0.528l-3.089,9.812H254.537z"/>
	<path fill="#000078" d="M260.936,5.057h5.858V6.37h-4.45v3.137h4.226v1.281h-4.226v3.297h4.45v1.312h-5.858V5.057z"/>
	<path fill="#000078" d="M270.28,15.398h-1.409V5.057h2.961c2.049,0,3.266,1.232,3.266,3.025v0.528c0,1.344-0.72,2.289-1.857,2.705
		l1.937,3.553v0.528h-1.297l-1.953-3.793c-0.128,0.016-0.272,0.016-0.4,0.016h-1.249V15.398z M271.785,10.339
		c1.265,0,1.905-0.56,1.905-1.905v-0.24c0-1.056-0.704-1.825-1.905-1.825h-1.504v3.97H271.785z"/>
	<path fill="#000078" d="M282.169,12.709h-3.729l-0.8,2.689h-1.249v-0.528l3.121-9.812h1.633l3.137,9.812v0.528h-1.312
		L282.169,12.709z M280.312,6.482l-1.488,4.962h2.961L280.312,6.482z"/>
	<path fill="#000078" d="M285.959,5.057h2.945c1.953,0,3.137,0.96,3.137,2.561v0.256c0,1.056-0.512,1.953-1.585,2.177
		c1.201,0.16,1.889,0.993,1.889,2.177v0.288c0,1.857-1.249,2.881-3.394,2.881h-2.993V5.057z M288.92,9.555
		c1.104,0,1.713-0.448,1.713-1.649v-0.16c0-0.88-0.624-1.441-1.617-1.441h-1.648v3.25H288.92z M289.177,14.149
		c1.136,0,1.761-0.56,1.761-1.681v-0.112c0-1.024-0.592-1.585-1.713-1.585h-1.856v3.377H289.177z"/>
	<path fill="#000078" d="M294.391,5.057h1.409v9.028h4.082v1.312h-5.49V5.057z"/>
	<path fill="#000078" d="M301.559,5.057h5.858V6.37h-4.45v3.137h4.226v1.281h-4.226v3.297h4.45v1.312h-5.858V5.057z"/>
	<path fill="#000078" d="M308.935,13.557c1.056,0.544,1.665,0.72,2.593,0.72c1.265,0,1.921-0.576,1.921-1.601
		c0-0.752-0.352-1.152-1.457-1.617l-0.864-0.352c-1.585-0.64-2.241-1.521-2.241-2.977c0-1.745,1.265-2.817,3.297-2.817
		c0.849,0,1.665,0.16,2.289,0.417v1.424c-0.784-0.384-1.44-0.576-2.305-0.576c-1.216,0-1.856,0.496-1.856,1.457
		c0,0.8,0.4,1.329,1.344,1.713l1.024,0.416c1.601,0.672,2.193,1.44,2.193,2.817c0,1.825-1.264,2.961-3.345,2.961
		c-0.944,0-1.792-0.176-2.593-0.544V13.557z"/>
</g>
<rect y="150.129" fill="#73EDFF" width="98.202" height="62.885"/>
<g>
	<path fill="#000078" d="M30.278,177.663h5.858v1.312h-4.45v3.137h4.226v1.281h-4.226v3.297h4.45v1.312h-5.858V177.663z"/>
	<path fill="#000078" d="M38.214,177.663h2.145l2.801,8.516l2.881-8.516h2.065v10.34h-1.297v-8.819l-3.041,8.819h-1.296
		l-2.978-8.819v8.819h-1.28V177.663z"/>
	<path fill="#000078" d="M55.56,185.314H51.83l-0.8,2.689h-1.249v-0.528l3.121-9.812h1.633l3.137,9.812v0.528H56.36L55.56,185.314z
		 M53.703,179.087l-1.488,4.962h2.961L53.703,179.087z"/>
	<path fill="#000078" d="M59.35,177.663h1.409v10.34H59.35V177.663z"/>
	<path fill="#000078" d="M63.253,177.663h1.409v9.028h4.082v1.312h-5.49V177.663z"/>
</g>
<rect x="111.104" y="74.043" fill="#73EDFF" width="98.202" height="62.885"/>
<g>
	<path fill="#000078" d="M128.565,101.577h2.145l2.801,8.516l2.881-8.516h2.065v10.34h-1.297v-8.819l-3.041,8.819h-1.296
		l-2.978-8.819v8.819h-1.28V101.577z"/>
	<path fill="#000078" d="M140.949,101.577h5.858v1.312h-4.45v3.137h4.226v1.281h-4.226v3.297h4.45v1.312h-5.858V101.577z"/>
	<path fill="#000078" d="M148.885,101.577h5.858v1.312h-4.45v3.137h4.226v1.281h-4.226v3.297h4.45v1.312h-5.858V101.577z"/>
	<path fill="#000078" d="M158.757,102.889h-2.833v-1.312h7.091v1.312h-2.849v9.028h-1.409V102.889z"/>
	<path fill="#000078" d="M164.612,101.577h1.409v10.34h-1.409V101.577z"/>
	<path fill="#000078" d="M168.516,101.577h1.633l4.401,7.875v-7.875h1.281v10.34h-1.376l-4.658-8.323v8.323h-1.28V101.577z"/>
	<path fill="#000078" d="M177.908,107.836v-2.321c0-2.577,1.488-4.082,3.985-4.082c0.913,0,1.713,0.144,2.545,0.448v1.457
		c-0.784-0.416-1.617-0.608-2.561-0.608c-1.729,0-2.561,0.96-2.561,2.977v2.017c0,2.049,0.8,3.058,2.449,3.058
		c0.672,0,1.121-0.128,1.633-0.417v-2.673h-1.777v-1.265h3.169v4.61c-0.785,0.64-1.921,1.024-3.025,1.024
		C179.221,112.061,177.908,110.621,177.908,107.836z"/>
	<path fill="#000078" d="M186.436,110.076c1.056,0.544,1.665,0.72,2.593,0.72c1.265,0,1.921-0.576,1.921-1.601
		c0-0.752-0.352-1.152-1.457-1.617l-0.864-0.352c-1.585-0.64-2.241-1.521-2.241-2.977c0-1.745,1.265-2.817,3.297-2.817
		c0.849,0,1.665,0.16,2.289,0.417v1.424c-0.784-0.384-1.44-0.576-2.305-0.576c-1.216,0-1.856,0.496-1.856,1.457
		c0,0.8,0.4,1.329,1.344,1.713l1.024,0.416c1.601,0.672,2.193,1.44,2.193,2.817c0,1.825-1.264,2.961-3.345,2.961
		c-0.944,0-1.792-0.176-2.593-0.544V110.076z"/>
</g>
<rect x="238.274" y="74.043" fill="#73EDFF" width="98.202" height="62.885"/>
<g>
	<path fill="#000078" d="M257.192,111.917h-1.409v-10.34h2.961c2.049,0,3.266,1.232,3.266,3.025v0.528
		c0,1.344-0.72,2.289-1.857,2.705l1.937,3.553v0.528h-1.297l-1.953-3.793c-0.128,0.016-0.272,0.016-0.4,0.016h-1.249V111.917z
		 M258.697,106.859c1.265,0,1.905-0.56,1.905-1.905v-0.24c0-1.056-0.704-1.825-1.905-1.825h-1.504v3.97H258.697z"/>
	<path fill="#000078" d="M264.12,101.577h5.858v1.312h-4.45v3.137h4.226v1.281h-4.226v3.297h4.45v1.312h-5.858V101.577z"/>
	<path fill="#000078" d="M271.495,110.076c1.056,0.544,1.665,0.72,2.593,0.72c1.265,0,1.921-0.576,1.921-1.601
		c0-0.752-0.352-1.152-1.457-1.617l-0.864-0.352c-1.585-0.64-2.241-1.521-2.241-2.977c0-1.745,1.265-2.817,3.297-2.817
		c0.849,0,1.665,0.16,2.289,0.417v1.424c-0.784-0.384-1.44-0.576-2.305-0.576c-1.216,0-1.856,0.496-1.856,1.457
		c0,0.8,0.4,1.329,1.344,1.713l1.024,0.416c1.601,0.672,2.193,1.44,2.193,2.817c0,1.825-1.264,2.961-3.345,2.961
		c-0.944,0-1.792-0.176-2.593-0.544V110.076z"/>
	<path fill="#000078" d="M279.399,101.577h5.858v1.312h-4.45v3.137h4.226v1.281h-4.226v3.297h4.45v1.312h-5.858V101.577z"/>
	<path fill="#000078" d="M292.296,109.228h-3.729l-0.8,2.689h-1.249v-0.528l3.121-9.812h1.633l3.137,9.812v0.528h-1.312
		L292.296,109.228z M290.439,103.002l-1.488,4.962h2.961L290.439,103.002z"/>
	<path fill="#000078" d="M297.495,111.917h-1.409v-10.34h2.961c2.049,0,3.266,1.232,3.266,3.025v0.528
		c0,1.344-0.72,2.289-1.857,2.705l1.937,3.553v0.528h-1.297l-1.953-3.793c-0.128,0.016-0.272,0.016-0.4,0.016h-1.249V111.917z
		 M298.999,106.859c1.265,0,1.905-0.56,1.905-1.905v-0.24c0-1.056-0.704-1.825-1.905-1.825h-1.504v3.97H298.999z"/>
	<path fill="#000078" d="M304.006,107.963v-2.417c0-2.657,1.424-4.114,3.825-4.114c0.769,0,1.409,0.112,1.937,0.336v1.408
		c-0.576-0.288-1.281-0.448-1.937-0.448c-1.601,0-2.417,0.944-2.417,3.089v1.873c0,2.033,0.816,3.073,2.513,3.073
		c0.704,0,1.345-0.176,1.969-0.592v1.409c-0.56,0.32-1.28,0.48-2.081,0.48C305.27,112.061,304.006,110.588,304.006,107.963z"/>
	<path fill="#000078" d="M311.75,101.577h1.409v4.322h4.402v-4.322h1.408v10.34h-1.408v-4.738h-4.402v4.738h-1.409V101.577z"/>
</g>
<rect x="399.189" y="74.043" fill="#73EDFF" width="98.202" height="62.885"/>
<g>
	<path fill="#000078" d="M427.094,103.626l-1.969,8.292H423.3l-2.321-9.812v-0.528h1.344l1.937,8.468l2.033-8.468h1.665l2.033,8.468
		l1.937-8.468h1.28v0.528l-2.353,9.812h-1.809L427.094,103.626z"/>
	<path fill="#000078" d="M436.532,111.917h-1.409v-10.34h2.961c2.049,0,3.266,1.232,3.266,3.025v0.528
		c0,1.344-0.72,2.289-1.857,2.705l1.937,3.553v0.528h-1.297l-1.953-3.793c-0.128,0.016-0.272,0.016-0.4,0.016h-1.249V111.917z
		 M438.037,106.859c1.265,0,1.905-0.56,1.905-1.905v-0.24c0-1.056-0.704-1.825-1.905-1.825h-1.504v3.97H438.037z"/>
	<path fill="#000078" d="M443.459,101.577h1.409v10.34h-1.409V101.577z"/>
	<path fill="#000078" d="M449.3,102.889h-2.833v-1.312h7.091v1.312h-2.849v9.028H449.3V102.889z"/>
	<path fill="#000078" d="M455.155,101.577h1.409v10.34h-1.409V101.577z"/>
	<path fill="#000078" d="M459.059,101.577h1.633l4.401,7.875v-7.875h1.281v10.34h-1.376l-4.658-8.323v8.323h-1.28V101.577z"/>
	<path fill="#000078" d="M468.451,107.836v-2.321c0-2.577,1.488-4.082,3.985-4.082c0.913,0,1.713,0.144,2.545,0.448v1.457
		c-0.784-0.416-1.617-0.608-2.561-0.608c-1.729,0-2.561,0.96-2.561,2.977v2.017c0,2.049,0.8,3.058,2.449,3.058
		c0.672,0,1.121-0.128,1.633-0.417v-2.673h-1.777v-1.265h3.169v4.61c-0.785,0.64-1.921,1.024-3.025,1.024
		C469.764,112.061,468.451,110.621,468.451,107.836z"/>
</g>
<rect x="499.391" y="74.043" fill="#73EDFF" width="98.202" height="62.885"/>
<g>
	<path fill="#000078" d="M524.581,107.963v-2.417c0-2.657,1.424-4.114,3.825-4.114c0.769,0,1.409,0.112,1.937,0.336v1.408
		c-0.576-0.288-1.281-0.448-1.937-0.448c-1.601,0-2.417,0.944-2.417,3.089v1.873c0,2.033,0.816,3.073,2.513,3.073
		c0.704,0,1.345-0.176,1.969-0.592v1.409c-0.56,0.32-1.28,0.48-2.081,0.48C525.846,112.061,524.581,110.588,524.581,107.963z"/>
	<path fill="#000078" d="M531.925,107.947v-2.417c0-2.593,1.36-4.098,3.714-4.098c2.385,0,3.713,1.473,3.713,4.114v2.417
		c0,2.593-1.36,4.098-3.713,4.098C533.253,112.061,531.925,110.588,531.925,107.947z M537.943,107.691v-1.873
		c0-2.129-0.721-3.089-2.305-3.089c-1.617,0-2.306,0.928-2.306,3.073v1.873c0,2.129,0.721,3.089,2.306,3.089
		C537.255,110.765,537.943,109.836,537.943,107.691z"/>
	<path fill="#000078" d="M541.285,107.947v-6.371h1.408v6.339c0,1.92,0.721,2.849,2.177,2.849c1.489,0,2.193-0.849,2.193-2.865
		v-6.323h1.393v6.371c0,2.625-1.217,4.114-3.586,4.114C542.437,112.061,541.285,110.605,541.285,107.947z"/>
	<path fill="#000078" d="M552.182,111.917h-1.408v-10.34h2.961c2.049,0,3.266,1.232,3.266,3.025v0.528
		c0,1.344-0.721,2.289-1.857,2.705l1.938,3.553v0.528h-1.297l-1.953-3.793c-0.128,0.016-0.271,0.016-0.399,0.016h-1.249V111.917z
		 M553.686,106.859c1.265,0,1.904-0.56,1.904-1.905v-0.24c0-1.056-0.704-1.825-1.904-1.825h-1.505v3.97H553.686z"/>
	<path fill="#000078" d="M558.644,110.076c1.057,0.544,1.665,0.72,2.593,0.72c1.265,0,1.921-0.576,1.921-1.601
		c0-0.752-0.352-1.152-1.456-1.617l-0.864-0.352c-1.585-0.64-2.241-1.521-2.241-2.977c0-1.745,1.265-2.817,3.297-2.817
		c0.849,0,1.665,0.16,2.289,0.417v1.424c-0.784-0.384-1.44-0.576-2.305-0.576c-1.217,0-1.856,0.496-1.856,1.457
		c0,0.8,0.399,1.329,1.344,1.713l1.024,0.416c1.602,0.672,2.193,1.44,2.193,2.817c0,1.825-1.265,2.961-3.346,2.961
		c-0.944,0-1.792-0.176-2.593-0.544V110.076z"/>
	<path fill="#000078" d="M566.549,101.577h5.858v1.312h-4.45v3.137h4.226v1.281h-4.226v3.297h4.45v1.312h-5.858V101.577z"/>
	<path fill="#000078" d="M518.302,125.963v-2.417c0-2.657,1.424-4.114,3.825-4.114c0.769,0,1.409,0.112,1.937,0.336v1.408
		c-0.576-0.288-1.281-0.448-1.937-0.448c-1.601,0-2.417,0.944-2.417,3.089v1.873c0,2.033,0.816,3.073,2.513,3.073
		c0.704,0,1.345-0.176,1.969-0.592v1.409c-0.56,0.32-1.28,0.48-2.081,0.48C519.566,130.061,518.302,128.588,518.302,125.963z"/>
	<path fill="#000078" d="M527.455,129.917h-1.409v-10.34h2.961c2.049,0,3.266,1.232,3.266,3.025v0.528
		c0,1.344-0.72,2.289-1.857,2.705l1.937,3.553v0.528h-1.297l-1.953-3.793c-0.128,0.016-0.272,0.016-0.4,0.016h-1.249V129.917z
		 M528.959,124.859c1.265,0,1.905-0.56,1.905-1.905v-0.24c0-1.056-0.704-1.825-1.905-1.825h-1.504v3.97H528.959z"/>
	<path fill="#000078" d="M534.382,119.577h5.858v1.312h-4.45v3.137h4.226v1.281h-4.226v3.297h4.45v1.312h-5.858V119.577z"/>
	<path fill="#000078" d="M547.279,127.228h-3.729l-0.801,2.689h-1.248v-0.528l3.121-9.812h1.633l3.137,9.812v0.528h-1.312
		L547.279,127.228z M545.422,121.002l-1.488,4.962h2.961L545.422,121.002z"/>
	<path fill="#000078" d="M552.078,120.889h-2.833v-1.312h7.091v1.312h-2.85v9.028h-1.408V120.889z"/>
	<path fill="#000078" d="M557.934,119.577h1.408v10.34h-1.408V119.577z"/>
	<path fill="#000078" d="M561.436,125.947v-2.417c0-2.593,1.36-4.098,3.714-4.098c2.385,0,3.713,1.473,3.713,4.114v2.417
		c0,2.593-1.36,4.098-3.713,4.098C562.765,130.061,561.436,128.588,561.436,125.947z M567.455,125.691v-1.873
		c0-2.129-0.721-3.089-2.305-3.089c-1.617,0-2.306,0.928-2.306,3.073v1.873c0,2.129,0.721,3.089,2.306,3.089
		C566.767,128.765,567.455,127.836,567.455,125.691z"/>
	<path fill="#000078" d="M570.957,119.577h1.633l4.401,7.875v-7.875h1.28v10.34h-1.376l-4.658-8.323v8.323h-1.28V119.577z"/>
</g>
<rect x="607.436" y="74.043" fill="#73EDFF" width="98.202" height="62.885"/>
<g>
	<path fill="#000078" d="M625.706,110.076c1.057,0.544,1.665,0.72,2.593,0.72c1.265,0,1.921-0.576,1.921-1.601
		c0-0.752-0.352-1.152-1.456-1.617l-0.864-0.352c-1.585-0.64-2.241-1.521-2.241-2.977c0-1.745,1.265-2.817,3.297-2.817
		c0.849,0,1.665,0.16,2.289,0.417v1.424c-0.784-0.384-1.44-0.576-2.305-0.576c-1.217,0-1.856,0.496-1.856,1.457
		c0,0.8,0.399,1.329,1.344,1.713l1.024,0.416c1.602,0.672,2.193,1.44,2.193,2.817c0,1.825-1.265,2.961-3.346,2.961
		c-0.944,0-1.792-0.176-2.593-0.544V110.076z"/>
	<path fill="#000078" d="M633.61,101.577h2.753c2.097,0,3.489,1.168,3.489,3.202v0.464c0,2.177-1.345,3.297-3.489,3.297h-1.345
		v3.377h-1.408V101.577z M636.283,107.243c1.521,0,2.161-0.576,2.161-2.081v-0.304c0-1.28-0.833-1.969-2.209-1.969h-1.217v4.354
		H636.283z"/>
	<path fill="#000078" d="M641.722,101.577h5.858v1.312h-4.449v3.137h4.226v1.281h-4.226v3.297h4.449v1.312h-5.858V101.577z"/>
	<path fill="#000078" d="M654.62,109.228h-3.729l-0.801,2.689h-1.248v-0.528l3.121-9.812h1.633l3.137,9.812v0.528h-1.312
		L654.62,109.228z M652.763,103.002l-1.488,4.962h2.961L652.763,103.002z"/>
	<path fill="#000078" d="M658.41,101.577h1.408v10.34h-1.408V101.577z M663.948,111.917l-3.714-5.154v-0.16l3.954-5.026h1.232v0.544
		l-3.569,4.514l3.425,4.77v0.528L663.948,111.917z"/>
	<path fill="#000078" d="M666.922,101.577h1.408v10.34h-1.408V101.577z"/>
	<path fill="#000078" d="M670.825,101.577h1.633l4.401,7.875v-7.875h1.281v10.34h-1.377l-4.658-8.323v8.323h-1.28V101.577z"/>
	<path fill="#000078" d="M680.218,107.836v-2.321c0-2.577,1.488-4.082,3.985-4.082c0.912,0,1.713,0.144,2.545,0.448v1.457
		c-0.784-0.416-1.617-0.608-2.562-0.608c-1.729,0-2.561,0.96-2.561,2.977v2.017c0,2.049,0.8,3.058,2.449,3.058
		c0.672,0,1.12-0.128,1.633-0.417v-2.673h-1.777v-1.265h3.17v4.61c-0.785,0.64-1.921,1.024-3.025,1.024
		C681.53,112.061,680.218,110.621,680.218,107.836z"/>
</g>
<rect x="506.234" y="296.012" fill="#73EDFF" width="98.202" height="36.67"/>
<g>
	<path fill="#000078" d="M510.944,315.94v-2.417c0-2.657,1.424-4.113,3.825-4.113c0.769,0,1.409,0.112,1.937,0.336v1.408
		c-0.576-0.288-1.281-0.447-1.937-0.447c-1.601,0-2.417,0.944-2.417,3.089v1.873c0,2.032,0.816,3.073,2.513,3.073
		c0.704,0,1.345-0.177,1.969-0.593v1.409c-0.56,0.319-1.28,0.479-2.081,0.479C512.208,320.038,510.944,318.565,510.944,315.94z"/>
	<path fill="#000078" d="M518.288,315.925v-2.417c0-2.593,1.361-4.098,3.714-4.098c2.385,0,3.713,1.473,3.713,4.113v2.417
		c0,2.594-1.36,4.098-3.713,4.098C519.616,320.038,518.288,318.565,518.288,315.925z M524.306,315.669v-1.873
		c0-2.129-0.72-3.089-2.305-3.089c-1.617,0-2.305,0.928-2.305,3.073v1.872c0,2.129,0.72,3.09,2.305,3.09
		C523.618,318.742,524.306,317.814,524.306,315.669z"/>
	<path fill="#000078" d="M527.808,309.554h1.633l4.402,7.876v-7.876h1.28v10.341h-1.376l-4.659-8.323v8.323h-1.28V309.554z"/>
	<path fill="#000078" d="M537.616,309.554h5.65v1.312h-4.242v3.378h4.05v1.28h-4.05v4.37h-1.408V309.554z"/>
	<path fill="#000078" d="M545.184,309.554h5.858v1.312h-4.449v3.138h4.226v1.28h-4.226v3.298h4.449v1.312h-5.858V309.554z"/>
	<path fill="#000078" d="M554.528,319.895h-1.408v-10.341h2.961c2.049,0,3.266,1.232,3.266,3.025v0.528
		c0,1.345-0.721,2.289-1.857,2.705l1.938,3.554v0.528h-1.297l-1.953-3.794c-0.128,0.017-0.271,0.017-0.399,0.017h-1.249V319.895z
		 M556.033,314.836c1.265,0,1.904-0.56,1.904-1.904v-0.24c0-1.057-0.704-1.825-1.904-1.825h-1.505v3.97H556.033z"/>
	<path fill="#000078" d="M561.456,309.554h5.858v1.312h-4.45v3.138h4.226v1.28h-4.226v3.298h4.45v1.312h-5.858V309.554z"/>
	<path fill="#000078" d="M569.392,309.554h1.633l4.401,7.876v-7.876h1.28v10.341h-1.376l-4.658-8.323v8.323h-1.28V309.554z"/>
	<path fill="#000078" d="M578.783,315.94v-2.417c0-2.657,1.424-4.113,3.825-4.113c0.769,0,1.408,0.112,1.937,0.336v1.408
		c-0.576-0.288-1.28-0.447-1.937-0.447c-1.601,0-2.417,0.944-2.417,3.089v1.873c0,2.032,0.816,3.073,2.513,3.073
		c0.704,0,1.345-0.177,1.969-0.593v1.409c-0.56,0.319-1.28,0.479-2.08,0.479C580.047,320.038,578.783,318.565,578.783,315.94z"/>
	<path fill="#000078" d="M586.527,309.554h5.858v1.312h-4.45v3.138h4.226v1.28h-4.226v3.298h4.45v1.312h-5.858V309.554z"/>
	<path fill="#000078" d="M593.902,318.054c1.057,0.544,1.665,0.72,2.593,0.72c1.265,0,1.921-0.576,1.921-1.601
		c0-0.752-0.352-1.152-1.456-1.616l-0.864-0.353c-1.585-0.64-2.241-1.521-2.241-2.977c0-1.745,1.265-2.817,3.297-2.817
		c0.849,0,1.665,0.16,2.289,0.416v1.425c-0.784-0.385-1.44-0.576-2.305-0.576c-1.217,0-1.856,0.496-1.856,1.456
		c0,0.801,0.399,1.329,1.344,1.713l1.024,0.416c1.602,0.673,2.193,1.44,2.193,2.817c0,1.825-1.265,2.961-3.346,2.961
		c-0.944,0-1.792-0.176-2.593-0.544V318.054z"/>
</g>
<g>
	<path fill="#000078" d="M146.033,291.542h1.409v10.34h-1.409V291.542z"/>
	<path fill="#000078" d="M149.937,291.542h1.633l4.401,7.875v-7.875h1.281v10.34h-1.376l-4.658-8.323v8.323h-1.28V291.542z"/>
	<path fill="#000078" d="M161.681,292.855h-2.833v-1.312h7.091v1.312h-2.849v9.027h-1.409V292.855z"/>
	<path fill="#000078" d="M167.537,291.542h5.858v1.312h-4.45v3.137h4.226v1.28h-4.226v3.298h4.45v1.312h-5.858V291.542z"/>
	<path fill="#000078" d="M176.881,301.882h-1.409v-10.34h2.961c2.049,0,3.266,1.232,3.266,3.024v0.528
		c0,1.345-0.72,2.289-1.857,2.705l1.937,3.554v0.528h-1.297l-1.953-3.794c-0.128,0.017-0.272,0.017-0.4,0.017h-1.249V301.882z
		 M178.385,296.824c1.265,0,1.905-0.561,1.905-1.905v-0.24c0-1.057-0.704-1.824-1.905-1.824h-1.504v3.97H178.385z"/>
	<path fill="#000078" d="M183.808,291.542h1.633l4.401,7.875v-7.875h1.281v10.34h-1.376l-4.658-8.323v8.323h-1.28V291.542z"/>
	<path fill="#000078" d="M198.578,299.192h-3.729l-0.8,2.689h-1.249v-0.528l3.121-9.812h1.633l3.137,9.812v0.528h-1.312
		L198.578,299.192z M196.721,292.966l-1.488,4.963h2.961L196.721,292.966z"/>
	<path fill="#000078" d="M202.368,291.542h1.409v9.027h4.082v1.312h-5.49V291.542z"/>
</g>
<ellipse fill="#000078" cx="218.67" cy="297.21" rx="9.364" ry="27.291"/>
<g>
	<path fill="#000078" d="M237.667,297.929v-2.417c0-2.657,1.424-4.114,3.825-4.114c0.769,0,1.409,0.112,1.937,0.336v1.409
		c-0.576-0.288-1.281-0.448-1.937-0.448c-1.601,0-2.417,0.944-2.417,3.089v1.873c0,2.032,0.816,3.073,2.513,3.073
		c0.704,0,1.345-0.176,1.969-0.593v1.409c-0.56,0.32-1.28,0.48-2.081,0.48C238.932,302.026,237.667,300.554,237.667,297.929z"/>
	<path fill="#000078" d="M245.412,291.542h1.409v9.027h4.082v1.312h-5.49V291.542z"/>
	<path fill="#000078" d="M252.58,291.542h1.409v10.34h-1.409V291.542z"/>
	<path fill="#000078" d="M256.483,291.542h5.858v1.312h-4.45v3.137h4.226v1.28h-4.226v3.298h4.45v1.312h-5.858V291.542z"/>
	<path fill="#000078" d="M264.419,291.542h1.633l4.401,7.875v-7.875h1.281v10.34h-1.376l-4.658-8.323v8.323h-1.28V291.542z"/>
	<path fill="#000078" d="M276.164,292.855h-2.833v-1.312h7.091v1.312h-2.849v9.027h-1.409V292.855z"/>
</g>
<circle fill="#73EDFF" cx="218.67" cy="353.273" r="44.497"/>
<ellipse fill="none" stroke="#000078" stroke-width="3" stroke-miterlimit="10" cx="218.67" cy="297.21" rx="9.364" ry="27.291"/>
<g>
	<path fill="#000078" d="M197.782,347.605h2.753c2.097,0,3.49,1.168,3.49,3.201v0.464c0,2.177-1.345,3.298-3.49,3.298h-1.344v3.377
		h-1.409V347.605z M200.455,353.271c1.521,0,2.161-0.576,2.161-2.081v-0.304c0-1.281-0.833-1.969-2.209-1.969h-1.216v4.354H200.455z
		"/>
	<path fill="#000078" d="M205.734,353.975v-6.37h1.409v6.338c0,1.921,0.72,2.85,2.177,2.85c1.489,0,2.193-0.849,2.193-2.865v-6.322
		h1.393v6.37c0,2.625-1.216,4.114-3.585,4.114C206.886,358.089,205.734,356.632,205.734,353.975z"/>
	<path fill="#000078" d="M215.222,347.605h2.945c1.953,0,3.137,0.96,3.137,2.561v0.256c0,1.057-0.512,1.953-1.585,2.178
		c1.201,0.159,1.889,0.992,1.889,2.177v0.288c0,1.856-1.249,2.881-3.394,2.881h-2.993V347.605z M218.183,352.102
		c1.104,0,1.713-0.448,1.713-1.648v-0.16c0-0.88-0.624-1.44-1.617-1.44h-1.648v3.249H218.183z M218.439,356.696
		c1.136,0,1.761-0.561,1.761-1.681v-0.112c0-1.024-0.592-1.585-1.713-1.585h-1.856v3.378H218.439z"/>
	<path fill="#000078" d="M223.653,347.605h1.409v9.027h4.082v1.312h-5.49V347.605z"/>
	<path fill="#000078" d="M230.821,347.605h1.409v10.34h-1.409V347.605z"/>
	<path fill="#000078" d="M234.309,353.991v-2.417c0-2.657,1.424-4.114,3.825-4.114c0.769,0,1.409,0.112,1.937,0.336v1.409
		c-0.576-0.288-1.281-0.448-1.937-0.448c-1.601,0-2.417,0.944-2.417,3.089v1.873c0,2.032,0.816,3.073,2.513,3.073
		c0.704,0,1.345-0.176,1.969-0.593v1.409c-0.56,0.32-1.28,0.48-2.081,0.48C235.573,358.089,234.309,356.616,234.309,353.991z"/>
</g>
<circle fill="none" stroke="#000078" stroke-width="3" stroke-miterlimit="10" cx="183.537" cy="297.21" r="44.497"/>
<circle fill="none" stroke="#000078" stroke-width="3" stroke-miterlimit="10" cx="253.803" cy="297.21" r="44.497"/>
<circle fill="none" stroke="#000078" stroke-width="3" stroke-miterlimit="10" cx="218.67" cy="353.273" r="44.497"/>
<rect x="223.16" y="29.37" fill="none" stroke="#000078" stroke-width="5" stroke-miterlimit="10" width="494.272" height="184.448"/>
<g>
	<g>
		<polyline fill="none" stroke="#000078" stroke-width="5" stroke-miterlimit="10" points="49.101,74.043 49.101,49.304 
			218.822,49.304 		"/>
		<g>
			<polygon fill="#000078" points="205.569,65.663 202.84,62.733 217.287,49.308 202.84,35.878 205.569,32.948 223.16,49.308 			"/>
		</g>
	</g>
</g>
<g>
	<g>
		
			<line fill="none" stroke="#000078" stroke-width="5" stroke-miterlimit="10" x1="336.476" y1="104.987" x2="394.851" y2="104.987"/>
		<g>
			<polygon fill="#000078" points="381.597,121.346 378.869,118.417 393.316,104.991 378.869,91.561 381.597,88.631 
				399.189,104.991 			"/>
		</g>
	</g>
</g>
<polyline fill="none" stroke="#000078" stroke-width="5" stroke-miterlimit="10" points="287.375,136.928 287.375,161.118 
	498.391,161.118 498.391,136.928 "/>
<line fill="none" stroke="#000078" stroke-width="5" stroke-miterlimit="10" x1="656.537" y1="290.635" x2="604.436" y2="266.508"/>
<g>
	<polyline fill="none" stroke="#000078" stroke-width="5" stroke-miterlimit="10" points="656.537,136.928 656.537,290.635 
		604.436,314.347 	"/>
</g>
<line fill="none" stroke="#000078" stroke-width="5" stroke-miterlimit="10" x1="506.234" y1="266.508" x2="285.994" y2="266.508"/>
<polyline fill="none" stroke="#000078" stroke-width="5" stroke-miterlimit="10" points="555.335,332.682 555.335,357.945 
	262.923,357.945 "/>
<g>
	<g>
		
			<line fill="none" stroke="#000078" stroke-width="5" stroke-miterlimit="10" x1="230.205" y1="233.676" x2="259.092" y2="136.928"/>
		<g>
			<polygon fill="#000078" points="249.673,225.656 247.646,222.204 230.648,232.206 221.913,214.521 218.326,216.297 
				228.968,237.834 			"/>
		</g>
	</g>
</g>
<g>
	<g>
		
			<line fill="none" stroke="#000078" stroke-width="5" stroke-miterlimit="10" x1="190.423" y1="136.928" x2="210.59" y2="233.586"/>
		<g>
			<polygon fill="#000078" points="191.869,223.953 194.179,220.684 210.273,232.084 220.469,215.198 223.894,217.271 
				211.472,237.834 			"/>
		</g>
	</g>
</g>
<g>
</g>
<g>
</g>
<g>
</g>
<g>
</g>
<g>
</g>
<g>
</g>
<g>
</g>
</svg>
